<?xml version="1.0" encoding="UTF-8"?>
<svg version="1.1" xmlns="http://www.w3.org/2000/svg" width="882" height="785">
<path d="M0 0 C1.59474055 2.03210409 3.0561104 4.05251066 4.5 6.1875 C8.04318814 11.29163636 11.69317115 16.26315155 15.5625 21.125 C19.78208208 26.4357512 23.88935056 31.81059102 27.9375 37.25390625 C29.83809301 39.78443065 31.78345876 42.27063227 33.75 44.75 C36.81332626 48.6559195 39.4749441 52.72951375 42 57 C38.49072131 60.69191773 34.81891303 63.72587204 30.625 66.625 C29.38087139 67.49909116 28.13740464 68.37412496 26.89453125 69.25 C26.25467285 69.69988281 25.61481445 70.14976562 24.95556641 70.61328125 C21.71325456 72.9124487 18.51332565 75.26859163 15.3125 77.625 C14.68980225 78.08189209 14.06710449 78.53878418 13.42553711 79.00952148 C10.50305096 81.15437018 7.58625243 83.30627788 4.6796875 85.47265625 C3.69226563 86.20355469 2.70484375 86.93445313 1.6875 87.6875 C0.82511719 88.33074219 -0.03726562 88.97398437 -0.92578125 89.63671875 C-3 91 -3 91 -5 91 C-5 91.66 -5 92.32 -5 93 C-6.68066386 94.23551506 -8.42364751 95.38646829 -10.1875 96.5 C-15.54294107 99.96453889 -20.58423316 103.66672923 -25.5456543 107.67382812 C-28.56675583 110.069693 -31.33845369 111.77274139 -35 113 C-35 113.66 -35 114.32 -35 115 C-37.0944968 116.63429751 -39.17782091 118.14167234 -41.375 119.625 C-41.97828125 120.04523438 -42.5815625 120.46546875 -43.203125 120.8984375 C-47.73462865 124 -47.73462865 124 -50 124 C-50 124.66 -50 125.32 -50 126 C-54.38461538 129 -54.38461538 129 -57 129 C-57 129.66 -57 130.32 -57 131 C-58.65 131.66 -60.3 132.32 -62 133 C-62 133.66 -62 134.32 -62 135 C-63.31536368 135.93460051 -64.6420703 136.85553706 -66.0078125 137.71484375 C-69.37019264 139.88390859 -72.5833702 142.26921851 -75.828125 144.609375 C-78 146 -78 146 -80 146 C-80 146.66 -80 147.32 -80 148 C-84.38461538 151 -84.38461538 151 -87 151 C-87 151.66 -87 152.32 -87 153 C-88.90625 154.515625 -88.90625 154.515625 -91.5 156.25 C-95.58335971 159.01670821 -99.52675227 161.88882402 -103.40625 164.93359375 C-105 166 -105 166 -107 166 C-107 166.66 -107 167.32 -107 168 C-111.38461538 171 -111.38461538 171 -114 171 C-114 171.66 -114 172.32 -114 173 C-115.43359375 174.23339844 -115.43359375 174.23339844 -117.4375 175.609375 C-118.16839844 176.11726562 -118.89929688 176.62515625 -119.65234375 177.1484375 C-120.42707031 177.67695313 -121.20179688 178.20546875 -122 178.75 C-123.50084007 179.7852415 -125.00084303 180.82169766 -126.5 181.859375 C-127.24378906 182.37177734 -127.98757813 182.88417969 -128.75390625 183.41210938 C-131.69423012 185.49079051 -134.53806632 187.6851601 -137.37109375 189.90722656 C-139 191 -139 191 -141 191 C-141 191.66 -141 192.32 -141 193 C-141.99 193 -142.98 193 -144 193 C-144 193.66 -144 194.32 -144 195 C-146.07186873 196.62724873 -148.14383048 198.13648884 -150.3125 199.625 C-151.59548889 200.52020763 -152.87803526 201.4160498 -154.16015625 202.3125 C-154.80484863 202.76109375 -155.44954102 203.2096875 -156.11376953 203.671875 C-159.76097136 206.23992806 -163.31981181 208.92873488 -166.890625 211.6015625 C-169 213 -169 213 -171 213 C-171 213.66 -171 214.32 -171 215 C-172.31536368 215.93460051 -173.6420703 216.85553706 -175.0078125 217.71484375 C-178.37019264 219.88390859 -181.5833702 222.26921851 -184.828125 224.609375 C-187 226 -187 226 -189 226 C-189 226.66 -189 227.32 -189 228 C-191.1171875 229.7265625 -191.1171875 229.7265625 -193.875 231.625 C-194.77992188 232.25664062 -195.68484375 232.88828125 -196.6171875 233.5390625 C-199 235 -199 235 -201 235 C-201 235.66 -201 236.32 -201 237 C-203.0944968 238.63429751 -205.17782091 240.14167234 -207.375 241.625 C-207.97828125 242.04523438 -208.5815625 242.46546875 -209.203125 242.8984375 C-213.73462865 246 -213.73462865 246 -216 246 C-216 246.66 -216 247.32 -216 248 C-220.38461538 251 -220.38461538 251 -223 251 C-223 251.66 -223 252.32 -223 253 C-224.65 253.66 -226.3 254.32 -228 255 C-228 255.66 -228 256.32 -228 257 C-229.4609375 258.2890625 -229.4609375 258.2890625 -231.375 259.625 C-232.00148438 260.07101562 -232.62796875 260.51703125 -233.2734375 260.9765625 C-235 262 -235 262 -237 262 C-239.19632426 270.12983625 -239.19632426 270.12983625 -237 278 C-235.20746547 280.65377526 -233.36997361 283.25677024 -231.4609375 285.828125 C-230 288 -230 288 -230 290 C-229.34 290 -228.68 290 -228 290 C-226.47397663 291.92532767 -225.07426399 293.85181818 -223.6875 295.875 C-222.78577909 297.16319662 -221.8834027 298.45093459 -220.98046875 299.73828125 C-220.49884277 300.42873535 -220.0172168 301.11918945 -219.52099609 301.83056641 C-216.87974751 305.59784327 -214.19165419 309.33114085 -211.5 313.0625 C-210.95182617 313.82320801 -210.40365234 314.58391602 -209.83886719 315.36767578 C-205.71245183 321.07054325 -201.46530334 326.66480721 -197.12109375 332.203125 C-191 340.27440147 -191 340.27440147 -191 343 C-190.34 343 -189.68 343 -189 343 C-187.37275127 345.07186873 -185.86351116 347.14383048 -184.375 349.3125 C-183.47979237 350.59548889 -182.5839502 351.87803526 -181.6875 353.16015625 C-181.23890625 353.80484863 -180.7903125 354.44954102 -180.328125 355.11376953 C-177.76007194 358.76097136 -175.07126512 362.31981181 -172.3984375 365.890625 C-171 368 -171 368 -171 370 C-170.34 370 -169.68 370 -169 370 C-166 374.38461538 -166 374.38461538 -166 377 C-165.34 377 -164.68 377 -164 377 C-162.36570249 379.0944968 -160.85832766 381.17782091 -159.375 383.375 C-158.95476562 383.97828125 -158.53453125 384.5815625 -158.1015625 385.203125 C-155 389.73462865 -155 389.73462865 -155 392 C-154.34 392 -153.68 392 -153 392 C-150 396.38461538 -150 396.38461538 -150 399 C-149.34 399 -148.68 399 -148 399 C-146.39475599 401.05131371 -144.90675546 403.10401851 -143.4375 405.25 C-142.53377698 406.54382519 -141.62880621 407.83677964 -140.72265625 409.12890625 C-140.26648926 409.78133301 -139.81032227 410.43375977 -139.34033203 411.10595703 C-137.4052226 413.84048872 -135.3944193 416.51484246 -133.375 419.1875 C-129.79784003 423.92755297 -126.27474976 428.70224634 -122.796875 433.515625 C-121.66987234 435.07382867 -120.53554507 436.62678869 -119.390625 438.171875 C-116 442.78160112 -116 442.78160112 -116 445 C-115.34 445 -114.68 445 -114 445 C-112.37275127 447.07186873 -110.86351116 449.14383048 -109.375 451.3125 C-108.47979237 452.59548889 -107.5839502 453.87803526 -106.6875 455.16015625 C-106.23890625 455.80484863 -105.7903125 456.44954102 -105.328125 457.11376953 C-102.76007194 460.76097136 -100.07126512 464.31981181 -97.3984375 467.890625 C-96 470 -96 470 -96 472 C-95.34 472 -94.68 472 -94 472 C-91 476.38461538 -91 476.38461538 -91 479 C-90.34 479 -89.68 479 -89 479 C-87.36570249 481.0944968 -85.85832766 483.17782091 -84.375 485.375 C-83.95476562 485.97828125 -83.53453125 486.5815625 -83.1015625 487.203125 C-80 491.73462865 -80 491.73462865 -80 494 C-79.34 494 -78.68 494 -78 494 C-76.47397663 495.92532767 -75.07426399 497.85181818 -73.6875 499.875 C-72.78577909 501.16319662 -71.8834027 502.45093459 -70.98046875 503.73828125 C-70.49884277 504.42873535 -70.0172168 505.11918945 -69.52099609 505.83056641 C-66.87974751 509.59784327 -64.19165419 513.33114085 -61.5 517.0625 C-60.95182617 517.82320801 -60.40365234 518.58391602 -59.83886719 519.36767578 C-55.71245183 525.07054325 -51.46530334 530.66480721 -47.12109375 536.203125 C-41 544.27440147 -41 544.27440147 -41 547 C-40.34 547 -39.68 547 -39 547 C-37.67578125 548.42578125 -37.67578125 548.42578125 -36.3125 550.3125 C-35.85488281 550.92738281 -35.39726562 551.54226563 -34.92578125 552.17578125 C-34.62027344 552.77777344 -34.31476563 553.37976563 -34 554 C-34.33 554.99 -34.66 555.98 -35 557 C-35.66 557 -36.32 557 -37 557 C-37 557.66 -37 558.32 -37 559 C-39.07189192 560.62726694 -41.14405233 562.13613158 -43.3125 563.625 C-44.60707003 564.53082255 -45.90133765 565.43707744 -47.1953125 566.34375 C-47.84145508 566.79363281 -48.48759766 567.24351562 -49.15332031 567.70703125 C-51.68785248 569.48160586 -54.1890641 571.30005552 -56.6875 573.125 C-57.55632812 573.75664063 -58.42515625 574.38828125 -59.3203125 575.0390625 C-61.23783845 576.44226662 -63.1485493 577.85480268 -65.0546875 579.2734375 C-66.54355469 580.37558594 -66.54355469 580.37558594 -68.0625 581.5 C-69.41021484 582.50546875 -69.41021484 582.50546875 -70.78515625 583.53125 C-73 585 -73 585 -75 585 C-75 585.66 -75 586.32 -75 587 C-79.38461538 590 -79.38461538 590 -82 590 C-82 590.66 -82 591.32 -82 592 C-83.78398614 593.28006797 -85.62853906 594.47660351 -87.5 595.625 C-88.5209375 596.25664063 -89.541875 596.88828125 -90.59375 597.5390625 C-91.3878125 598.02117188 -92.181875 598.50328125 -93 599 C-97.82961657 593.11866177 -102.47110001 587.11478734 -107 581 C-107.49282471 580.3412085 -107.98564941 579.68241699 -108.4934082 579.00366211 C-112 574.23546563 -112 574.23546563 -112 572 C-112.66 572 -113.32 572 -114 572 C-117 567.61538462 -117 567.61538462 -117 565 C-117.66 565 -118.32 565 -119 565 C-120.63429751 562.9055032 -122.14167234 560.82217909 -123.625 558.625 C-124.04523438 558.02171875 -124.46546875 557.4184375 -124.8984375 556.796875 C-128 552.26537135 -128 552.26537135 -128 550 C-128.66 550 -129.32 550 -130 550 C-131.56553595 548.01167744 -133.00992663 546.02229791 -134.4375 543.9375 C-135.32823756 542.65932647 -136.22021086 541.38201341 -137.11328125 540.10546875 C-137.81445068 539.1007251 -137.81445068 539.1007251 -138.52978516 538.07568359 C-140.02695379 535.96194601 -141.55839386 533.87822652 -143.10546875 531.80078125 C-143.60957275 531.12345947 -144.11367676 530.4461377 -144.63305664 529.74829102 C-145.61732274 528.42997682 -146.6047281 527.11399985 -147.59545898 525.80053711 C-151 521.21989312 -151 521.21989312 -151 519 C-151.66 519 -152.32 519 -153 519 C-153.91275528 517.70107902 -154.81140057 516.39095363 -155.65625 515.046875 C-158.00183458 511.47394966 -160.62771984 508.09897644 -163.1953125 504.68359375 C-164.888414 502.16592984 -165.99925682 499.85263392 -167 497 C-167.66 497 -168.32 497 -169 497 C-170.62724873 494.92813127 -172.13648884 492.85616952 -173.625 490.6875 C-174.52020763 489.40451111 -175.4160498 488.12196474 -176.3125 486.83984375 C-176.76109375 486.19515137 -177.2096875 485.55045898 -177.671875 484.88623047 C-180.23992806 481.23902864 -182.92873488 477.68018819 -185.6015625 474.109375 C-187 472 -187 472 -187 470 C-187.66 470 -188.32 470 -189 470 C-192 465.61538462 -192 465.61538462 -192 463 C-192.66 463 -193.32 463 -194 463 C-195.63429751 460.9055032 -197.14167234 458.82217909 -198.625 456.625 C-199.04523438 456.02171875 -199.46546875 455.4184375 -199.8984375 454.796875 C-203 450.26537135 -203 450.26537135 -203 448 C-203.66 448 -204.32 448 -205 448 C-206.87337325 445.53471403 -208.63584328 443.05797185 -210.375 440.5 C-214.45693284 434.60195558 -218.60394602 428.77839552 -222.9375 423.0625 C-227.42507472 417.11949564 -231.86452892 411.14383837 -236.25 405.125 C-236.82355225 404.34519775 -237.39710449 403.56539551 -237.98803711 402.76196289 C-238.51276611 402.03871826 -239.03749512 401.31547363 -239.578125 400.5703125 C-240.04637695 399.92852051 -240.51462891 399.28672852 -240.99707031 398.62548828 C-242 397 -242 397 -242 395 C-242.66 395 -243.32 395 -244 395 C-245.62724873 392.92813127 -247.13648884 390.85616952 -248.625 388.6875 C-249.52020763 387.40451111 -250.4160498 386.12196474 -251.3125 384.83984375 C-251.76109375 384.19515137 -252.2096875 383.55045898 -252.671875 382.88623047 C-255.23992806 379.23902864 -257.92873488 375.68018819 -260.6015625 372.109375 C-262 370 -262 370 -262 368 C-262.66 368 -263.32 368 -264 368 C-267 363.61538462 -267 363.61538462 -267 361 C-267.66 361 -268.32 361 -269 361 C-270.63429751 358.9055032 -272.14167234 356.82217909 -273.625 354.625 C-274.25535156 353.72007812 -274.25535156 353.72007812 -274.8984375 352.796875 C-278 348.26537135 -278 348.26537135 -278 346 C-278.66 346 -279.32 346 -280 346 C-283 341.61538462 -283 341.61538462 -283 339 C-283.66 339 -284.32 339 -285 339 C-286.54346519 337.03223561 -287.96671587 335.06208133 -289.375 333 C-290.27291763 331.71226932 -291.17273636 330.42586267 -292.07421875 329.140625 C-292.54907715 328.46322266 -293.02393555 327.78582031 -293.51318359 327.08789062 C-296.00344692 323.5908903 -298.59731846 320.17326417 -301.1875 316.75 C-315.94186688 297.14504186 -326.24356475 280.75615675 -323.7265625 255.2265625 C-322.04611616 245.42924327 -317.73833418 236.06468587 -312 228 C-311.34 228 -310.68 228 -310 228 C-310 227.34 -310 226.68 -310 226 C-309.34 226 -308.68 226 -308 226 C-307.731875 225.360625 -307.46375 224.72125 -307.1875 224.0625 C-306 222 -306 222 -303 221 C-303 220.34 -303 219.68 -303 219 C-301.37939453 217.57958984 -301.37939453 217.57958984 -299.1328125 215.9609375 C-298.32972656 215.38085938 -297.52664063 214.80078125 -296.69921875 214.203125 C-295.84972656 213.59984375 -295.00023437 212.9965625 -294.125 212.375 C-292.86236328 211.45847656 -292.86236328 211.45847656 -291.57421875 210.5234375 C-285.26361956 206 -285.26361956 206 -283 206 C-283 205.34 -283 204.68 -283 204 C-278.61538462 201 -278.61538462 201 -276 201 C-276 200.34 -276 199.68 -276 199 C-273.525 198.01 -273.525 198.01 -271 197 C-271 196.34 -271 195.68 -271 195 C-268.69909595 193.29268024 -266.39062089 191.6983193 -264 190.125 C-258.10977063 186.168008 -252.34451082 182.09662253 -246.6875 177.8125 C-246.0260498 177.31282715 -245.36459961 176.8131543 -244.68310547 176.29833984 C-243.3966001 175.32585073 -242.11045505 174.35288473 -240.82470703 173.37939453 C-238.10218666 171.32129444 -235.36946163 169.27882627 -232.625 167.25 C-231.77164063 166.61578125 -230.91828125 165.9815625 -230.0390625 165.328125 C-228 164 -228 164 -226 164 C-226 163.34 -226 162.68 -226 162 C-221.61538462 159 -221.61538462 159 -219 159 C-219 158.34 -219 157.68 -219 157 C-217.01163678 155.43443204 -215.02210262 153.99043076 -212.9375 152.5625 C-211.64384562 151.65853249 -210.35089993 150.75355009 -209.05859375 149.84765625 C-208.38683105 149.37859863 -207.71506836 148.90954102 -207.02294922 148.42626953 C-203.81428557 146.16401838 -200.65828894 143.83178979 -197.5 141.5 C-195.00158085 139.66450696 -192.50118685 137.83171942 -190 136 C-189.34306152 135.51869629 -188.68612305 135.03739258 -188.00927734 134.54150391 C-186.07252563 133.12645847 -184.13083362 131.71848773 -182.1875 130.3125 C-181.59453125 129.87808594 -181.0015625 129.44367188 -180.390625 128.99609375 C-176.22938368 126 -176.22938368 126 -174 126 C-174 125.34 -174 124.68 -174 124 C-171.8828125 122.2734375 -171.8828125 122.2734375 -169.125 120.375 C-168.22007812 119.74335938 -167.31515625 119.11171875 -166.3828125 118.4609375 C-164 117 -164 117 -162 117 C-162 116.34 -162 115.68 -162 115 C-160.0746749 113.47397866 -158.1482611 112.0741468 -156.125 110.6875 C-154.83935046 109.78846543 -153.55421988 108.8886884 -152.26953125 107.98828125 C-151.57939941 107.50697754 -150.88926758 107.02567383 -150.17822266 106.52978516 C-146.36214396 103.84971913 -142.58947691 101.1097507 -138.8125 98.375 C-138.04953613 97.82457031 -137.28657227 97.27414063 -136.50048828 96.70703125 C-133.14738419 94.28683265 -129.80038005 91.86011742 -126.48046875 89.39453125 C-125.49691406 88.66621094 -124.51335937 87.93789062 -123.5 87.1875 C-122.6646875 86.56230469 -121.829375 85.93710938 -120.96875 85.29296875 C-119 84 -119 84 -117 84 C-117 83.34 -117 82.68 -117 82 C-112.61538462 79 -112.61538462 79 -110 79 C-110 78.34 -110 77.68 -110 77 C-107.98046875 75.3359375 -107.98046875 75.3359375 -105.1875 73.375 C-104.17042969 72.653125 -103.15335938 71.93125 -102.10546875 71.1875 C-101.08066406 70.465625 -100.05585938 69.74375 -99 69 C-97.33065405 67.79537088 -95.66396257 66.58705437 -94 65.375 C-93.10796875 64.72660156 -92.2159375 64.07820313 -91.296875 63.41015625 C-86.11905221 59.63286492 -80.96696912 55.82029228 -75.8125 52.01123047 C-74.2677473 50.8708884 -72.72157526 49.73246592 -71.17382812 48.59619141 C-69.75760632 47.55629269 -68.34466409 46.51190805 -66.93554688 45.46240234 C-62.22482853 42 -62.22482853 42 -60 42 C-60 41.34 -60 40.68 -60 40 C-55.61538462 37 -55.61538462 37 -53 37 C-53 36.34 -53 35.68 -53 35 C-51.4453125 33.73046875 -51.4453125 33.73046875 -49.125 32.1875 C-44.12752349 28.78751952 -39.20876327 25.29431772 -34.3125 21.75 C-33.16031982 20.91855469 -33.16031982 20.91855469 -31.98486328 20.0703125 C-28.16354075 17.30856386 -24.35636911 14.53003932 -20.57421875 11.71484375 C-19.88610107 11.20405273 -19.1979834 10.69326172 -18.48901367 10.16699219 C-17.18787968 9.19916698 -15.88972956 8.22731401 -14.5949707 7.25097656 C-10.22151705 4 -10.22151705 4 -8 4 C-8 3.34 -8 2.68 -8 2 C-3.61016949 -1.20338983 -3.61016949 -1.20338983 0 0 Z " fill="#4A14AE" transform="translate(478,100)"/>
<path d="M0 0 C1.95703125 2.01953125 1.95703125 2.01953125 3.8125 4.8125 C4.84310547 6.32263672 4.84310547 6.32263672 5.89453125 7.86328125 C6.58933594 8.89839844 7.28414062 9.93351562 8 11 C9.32490609 12.83943272 10.65805959 14.67295736 12 16.5 C13.99107874 19.2362778 15.98079455 21.97346364 17.96484375 24.71484375 C21.43706361 29.50719472 24.94231801 34.27066287 28.5 39 C30.00083512 40.99937339 31.50083156 42.9993766 33 45 C33.77472656 46.03382813 34.54945313 47.06765625 35.34765625 48.1328125 C36.44400391 49.61394531 36.44400391 49.61394531 37.5625 51.125 C38.55443359 52.45917969 38.55443359 52.45917969 39.56640625 53.8203125 C41 56 41 56 41 58 C41.66 58 42.32 58 43 58 C46 62.38461538 46 62.38461538 46 65 C46.66 65 47.32 65 48 65 C49.63429751 67.0944968 51.14167234 69.17782091 52.625 71.375 C53.04523438 71.97828125 53.46546875 72.5815625 53.8984375 73.203125 C57 77.73462865 57 77.73462865 57 80 C57.66 80 58.32 80 59 80 C60.710781 82.17573193 62.30540984 84.3506959 63.875 86.625 C64.52662109 87.55119141 64.52662109 87.55119141 65.19140625 88.49609375 C66.47227142 90.32315368 67.7373016 92.16035325 69 94 C69.39993164 94.57073242 69.79986328 95.14146484 70.21191406 95.72949219 C73 99.77037445 73 99.77037445 73 102 C73.66 102 74.32 102 75 102 C76.6640625 104.01953125 76.6640625 104.01953125 78.625 106.8125 C79.33914063 107.81925781 80.05328125 108.82601562 80.7890625 109.86328125 C81.51867187 110.89839844 82.24828125 111.93351562 83 113 C84.32997251 114.83577287 85.66321318 116.66918327 87 118.5 C88.99107874 121.2362778 90.98079455 123.97346364 92.96484375 126.71484375 C96.48091056 131.5677122 100.02931237 136.39324983 103.625 141.1875 C104.36878906 142.18007813 105.11257813 143.17265625 105.87890625 144.1953125 C107.20634118 145.95055795 108.54567407 147.69693896 109.90234375 149.4296875 C110.72412109 150.48542969 110.72412109 150.48542969 111.5625 151.5625 C112.03816406 152.16191406 112.51382813 152.76132812 113.00390625 153.37890625 C114 155 114 155 114 158 C114.66 158 115.32 158 116 158 C120.24159412 166.95267767 123.29000291 175.0769455 124 185 C124.05414062 185.66386719 124.10828125 186.32773437 124.1640625 187.01171875 C124.82757249 202.84547985 119.60392172 216.84467632 109.25 228.75 C105.47515528 232.84161491 105.47515528 232.84161491 102 234 C102 234.66 102 235.32 102 236 C101.34 236 100.68 236 100 236 C100 236.66 100 237.32 100 238 C98.67749023 239.15405273 98.67749023 239.15405273 96.80859375 240.43359375 C96.11846191 240.9121582 95.42833008 241.39072266 94.71728516 241.88378906 C93.96495605 242.39651367 93.21262695 242.90923828 92.4375 243.4375 C90.87026572 244.52354566 89.30387546 245.61081018 87.73828125 246.69921875 C86.94373535 247.25013184 86.14918945 247.80104492 85.33056641 248.36865234 C81.88997955 250.77699106 78.50422233 253.25661037 75.125 255.75 C74.20895996 256.42337402 74.20895996 256.42337402 73.27441406 257.11035156 C70.40676663 259.21968963 67.54577253 261.33757348 64.69140625 263.46484375 C63.70011719 264.19832031 62.70882812 264.93179687 61.6875 265.6875 C60.82511719 266.33074219 59.96273437 266.97398437 59.07421875 267.63671875 C57 269 57 269 55 269 C55 269.66 55 270.32 55 271 C53.61401367 272.20166016 53.61401367 272.20166016 51.66796875 273.5390625 C50.60074585 274.2810791 50.60074585 274.2810791 49.51196289 275.03808594 C48.74489014 275.56176758 47.97781738 276.08544922 47.1875 276.625 C45.62705899 277.70494184 44.06716393 278.78567298 42.5078125 279.8671875 C41.73985352 280.39795898 40.97189453 280.92873047 40.18066406 281.47558594 C36.39263428 284.12364437 32.69918916 286.89618158 29.00390625 289.671875 C27 291 27 291 25 291 C25 291.66 25 292.32 25 293 C20.61538462 296 20.61538462 296 18 296 C18 296.66 18 297.32 18 298 C16.4453125 299.26953125 16.4453125 299.26953125 14.125 300.8125 C9.06582046 304.25475426 4.08393046 307.78966999 -0.875 311.375 C-2.04204468 312.21635498 -2.04204468 312.21635498 -3.23266602 313.07470703 C-8.73686089 317.05357371 -14.15816885 321.12302022 -19.51953125 325.29296875 C-21.95319739 326.96779096 -24.22027976 328.02684839 -27 329 C-27 329.66 -27 330.32 -27 331 C-29.1171875 332.7265625 -29.1171875 332.7265625 -31.875 334.625 C-33.23238281 335.57246094 -33.23238281 335.57246094 -34.6171875 336.5390625 C-37 338 -37 338 -39 338 C-39 338.66 -39 339.32 -39 340 C-40.37695312 341.14501953 -40.37695312 341.14501953 -42.28125 342.3828125 C-42.95800781 342.82753906 -43.63476562 343.27226563 -44.33203125 343.73046875 C-45.40517578 344.42076172 -45.40517578 344.42076172 -46.5 345.125 C-47.21542969 345.59292969 -47.93085937 346.06085938 -48.66796875 346.54296875 C-50.44126915 347.70152501 -52.2201309 348.85156066 -54 350 C-62.66737866 341.49785733 -69.73171065 331.77666272 -76.86303711 321.98974609 C-80.37156838 317.17824675 -83.96819352 312.46739958 -87.71044922 307.83447266 C-89 306 -89 306 -89 304 C-89.66 304 -90.32 304 -91 304 C-92.76171875 301.953125 -92.76171875 301.953125 -94.6875 299.25 C-95.65236328 297.92742187 -95.65236328 297.92742187 -96.63671875 296.578125 C-98 294 -98 294 -97.953125 291.875 C-96.71660593 289.44250346 -95.2745368 288.33402635 -93.0625 286.75 C-92.35222656 286.22921875 -91.64195312 285.7084375 -90.91015625 285.171875 C-89 284 -89 284 -87 284 C-87 283.34 -87 282.68 -87 282 C-84.8828125 280.2734375 -84.8828125 280.2734375 -82.125 278.375 C-80.76761719 277.42753906 -80.76761719 277.42753906 -79.3828125 276.4609375 C-77 275 -77 275 -75 275 C-75 274.34 -75 273.68 -75 273 C-73.67749023 271.84594727 -73.67749023 271.84594727 -71.80859375 270.56640625 C-70.773396 269.84855957 -70.773396 269.84855957 -69.71728516 269.11621094 C-68.96495605 268.60348633 -68.21262695 268.09076172 -67.4375 267.5625 C-65.87026572 266.47645434 -64.30387546 265.38918982 -62.73828125 264.30078125 C-61.94373535 263.74986816 -61.14918945 263.19895508 -60.33056641 262.63134766 C-56.88997955 260.22300894 -53.50422233 257.74338963 -50.125 255.25 C-49.51430664 254.80108398 -48.90361328 254.35216797 -48.27441406 253.88964844 C-45.40676663 251.78031037 -42.54577253 249.66242652 -39.69140625 247.53515625 C-38.70011719 246.80167969 -37.70882812 246.06820312 -36.6875 245.3125 C-35.39392578 244.34763672 -35.39392578 244.34763672 -34.07421875 243.36328125 C-32 242 -32 242 -30 242 C-30 241.34 -30 240.68 -30 240 C-27.99109068 238.41241209 -25.98230662 236.9471798 -23.875 235.5 C-22.59609201 234.60714623 -21.31745432 233.71390518 -20.0390625 232.8203125 C-19.37551758 232.35915039 -18.71197266 231.89798828 -18.02832031 231.42285156 C-16.01124449 230.00788792 -14.01480879 228.56805781 -12.0234375 227.1171875 C-11.39066895 226.65763672 -10.75790039 226.19808594 -10.10595703 225.72460938 C-8.88343711 224.83562093 -7.66299974 223.94376042 -6.44482422 223.04882812 C-2.22384196 220 -2.22384196 220 0 220 C0 219.34 0 218.68 0 218 C2.17573193 216.289219 4.3506959 214.69459016 6.625 213.125 C7.55119141 212.47337891 7.55119141 212.47337891 8.49609375 211.80859375 C10.32315368 210.52772858 12.16035325 209.2626984 14 208 C14.57073242 207.60006836 15.14146484 207.20013672 15.72949219 206.78808594 C19.77037445 204 19.77037445 204 22 204 C22 203.34 22 202.68 22 202 C23.68113694 200.6662784 25.42195478 199.40728884 27.1875 198.1875 C28.1878125 197.465625 29.188125 196.74375 30.21875 196 C31.59546875 195.01 31.59546875 195.01 33 194 C36.10500809 191.74734707 37.56442261 190.43262159 38.67578125 186.77734375 C39.52981322 179.79074485 36.86483181 175.60562775 32.8125 170.25 C31.37426563 168.41755079 29.91583235 166.60425129 28.44384766 164.79882812 C22 156.77071356 22 156.77071356 22 154 C21.34 154 20.68 154 20 154 C18.72359257 152.25617577 17.52985118 150.45159728 16.375 148.625 C13.08867167 143.54558376 9.57849868 138.86233609 5.6640625 134.25390625 C3.93786736 131.91584383 2.95465865 129.73379524 2 127 C1.34 127 0.68 127 0 127 C-3 122.61538462 -3 122.61538462 -3 120 C-3.66 120 -4.32 120 -5 120 C-6.63429751 117.9055032 -8.14167234 115.82217909 -9.625 113.625 C-10.04523438 113.02171875 -10.46546875 112.4184375 -10.8984375 111.796875 C-14 107.26537135 -14 107.26537135 -14 105 C-14.66 105 -15.32 105 -16 105 C-17.710781 102.82426807 -19.30540984 100.6493041 -20.875 98.375 C-21.52662109 97.44880859 -21.52662109 97.44880859 -22.19140625 96.50390625 C-23.47227142 94.67684632 -24.7373016 92.83964675 -26 91 C-26.39993164 90.42926758 -26.79986328 89.85853516 -27.21191406 89.27050781 C-30 85.22962555 -30 85.22962555 -30 83 C-30.66 83 -31.32 83 -32 83 C-33.710781 80.82426807 -35.30540984 78.6493041 -36.875 76.375 C-37.30941406 75.75753906 -37.74382813 75.14007813 -38.19140625 74.50390625 C-39.47227142 72.67684632 -40.7373016 70.83964675 -42 69 C-42.39993164 68.42926758 -42.79986328 67.85853516 -43.21191406 67.27050781 C-46 63.22962555 -46 63.22962555 -46 61 C-46.66 61 -47.32 61 -48 61 C-48.66 59.35 -49.32 57.7 -50 56 C-50.66 56 -51.32 56 -52 56 C-55 51.61538462 -55 51.61538462 -55 49 C-55.66 49 -56.32 49 -57 49 C-58.32 46.69 -59.64 44.38 -61 42 C-59.68 41.34 -58.36 40.68 -57 40 C-57 39.34 -57 38.68 -57 38 C-55.62988281 36.81420898 -55.62988281 36.81420898 -53.703125 35.49609375 C-52.99776611 35.00737793 -52.29240723 34.51866211 -51.56567383 34.01513672 C-50.41941528 33.23420654 -50.41941528 33.23420654 -49.25 32.4375 C-47.67480241 31.34646394 -46.10058745 30.25400787 -44.52734375 29.16015625 C-43.75116699 28.62148926 -42.97499023 28.08282227 -42.17529297 27.52783203 C-39.33922945 25.53590324 -36.57384069 23.46942259 -33.8125 21.375 C-29.36692445 18.01461349 -24.89176047 14.70130569 -20.375 11.4375 C-19.46778198 10.77403564 -19.46778198 10.77403564 -18.54223633 10.09716797 C-14.23198007 7 -14.23198007 7 -12 7 C-12 6.34 -12 5.68 -12 5 C-10.64453125 3.7109375 -10.64453125 3.7109375 -8.8125 2.375 C-8.22082031 1.92898437 -7.62914062 1.48296875 -7.01953125 1.0234375 C-4.39048223 -0.30888521 -2.90913044 -0.52273438 0 0 Z " fill="#4A14AE" transform="translate(632,250)"/>
<path d="M0 0 C-2.42306821 3.63460231 -4.98503574 4.54841571 -8.875 6.125 C-9.50019531 6.38925781 -10.12539063 6.65351563 -10.76953125 6.92578125 C-13.80515031 8.19008771 -16.77440817 9.33543083 -20 10 C-20 10.66 -20 11.32 -20 12 C-20.99 12.66 -21.98 13.32 -23 14 C-23.40405725 17.08093651 -23.60918061 19.03949611 -23 22 C-19.33920949 26.70673065 -15.28127059 29.37783529 -9.5625 30.9375 C-1.93645074 31.69573052 6.28803504 28.37076654 13 25 C19.71576909 24.05979233 24.32247388 26.80139374 30 30 C30 30.66 30 31.32 30 32 C30.680625 32.226875 31.36125 32.45375 32.0625 32.6875 C35.6988709 34.31226146 39.02829263 36.32803257 42 39 C42 39.66 42 40.32 42 41 C42.71285156 41.2371875 43.42570312 41.474375 44.16015625 41.71875 C47.47566747 43.21460651 49.70308923 45.10312398 52.4375 47.5 C57.59858051 51.95954244 62.98634319 55.94757326 68.63061523 59.77539062 C70.12030218 60.80371851 71.56523554 61.89633503 73 63 C73 63.66 73 64.32 73 65 C73.61875 65.268125 74.2375 65.53625 74.875 65.8125 C77 67 77 67 79 70 C78.55555556 75.44444444 78.55555556 75.44444444 76 78 C68.47399978 78.32025533 63.69458594 73.3786102 58 69 C56.34603107 67.81540063 54.68043498 66.64674634 53 65.5 C52.29875 65.0153125 51.5975 64.530625 50.875 64.03125 C48.9185393 62.75904063 48.9185393 62.75904063 46 63 C47.46884731 66.87241564 49.49706804 67.97198676 53 70 C53 70.66 53 71.32 53 72 C53.70125 72.20625 54.4025 72.4125 55.125 72.625 C58.84789845 74.40551665 61.62761546 76.59650839 64 80 C64.0704379 83.02882952 63.44778982 84.31653133 61.8125 86.8125 C59.08516458 88.59937493 57.21606774 88.32817018 54 88 C51.0703125 86.2421875 51.0703125 86.2421875 48.125 83.875 C47.60615234 83.46773682 47.08730469 83.06047363 46.55273438 82.64086914 C45.02483049 81.4402718 43.51212248 80.22041381 42 79 C40.50678556 77.80397873 39.0078684 76.61499274 37.5 75.4375 C36.61828125 74.72400391 36.61828125 74.72400391 35.71875 73.99609375 C33.75428724 72.66571748 33.75428724 72.66571748 30 73 C31.72662398 77.96261463 36.23983575 80.30005975 40.38867188 83.11328125 C43.39421655 85.27889256 44.87033837 86.58923601 46 90.16796875 C46 93 46 93 44.4375 95.4375 C42 97 42 97 39.125 97 C35.53827413 95.85224772 32.95618602 94.32271759 30 92 C30 91.34 30 90.68 30 90 C29.34 89.79375 28.68 89.5875 28 89.375 C24.48102669 87.76213723 21.83252146 85.6079507 18.8671875 83.14453125 C18.25101562 82.76683594 17.63484375 82.38914062 17 82 C16.01 82.33 15.02 82.66 14 83 C15.5081098 87.52432941 19.4571115 89.15147783 23.33984375 91.59570312 C27.77680746 94.50591652 27.77680746 94.50591652 28.96875 97.14453125 C29 99 29 99 28 101.25 C25.65665341 103.30042827 24.18141826 103.47604427 21.11279297 103.39648438 C16.64658345 102.55836047 12.89693912 99.95773863 9.0625 97.625 C7.75055664 96.86316406 7.75055664 96.86316406 6.41210938 96.0859375 C1.71700322 93.30039443 1.71700322 93.30039443 0 92 C0 91.34 0 90.68 0 90 C-0.88377319 89.81908813 -0.88377319 89.81908813 -1.78540039 89.63452148 C-4.05258552 88.98493333 -5.50378987 88.18257675 -7.43359375 86.84765625 C-8.39676514 86.18552124 -8.39676514 86.18552124 -9.37939453 85.51000977 C-10.39815674 84.79349243 -10.39815674 84.79349243 -11.4375 84.0625 C-12.1476123 83.56741943 -12.85772461 83.07233887 -13.58935547 82.56225586 C-19.63279729 78.31831144 -25.55900623 73.95321256 -31.31884766 69.32861328 C-33.16154465 67.8723314 -35.03933424 66.46814337 -36.91796875 65.05859375 C-38.21759634 64.04091216 -39.51580441 63.02141484 -40.8125 62 C-41.43012207 61.55019775 -42.04774414 61.10039551 -42.68408203 60.63696289 C-45.24108182 58.56355213 -46.78577927 57.09452834 -47.4309082 53.79833984 C-47.47999478 51.15081445 -47.29627126 48.63132251 -47 46 C-46.90452881 45.08766602 -46.80905762 44.17533203 -46.71069336 43.23535156 C-46.37224742 40.35744041 -45.9768873 37.49291443 -45.5625 34.625 C-44.54087438 27.41881859 -43.66687308 20.39793152 -43.69921875 13.109375 C-43 11 -43 11 -40.3828125 9.328125 C-37.00916918 8.00359991 -33.68655098 6.94250532 -30.1875 6 C-26.16215391 4.89334662 -22.18665954 3.76440925 -18.25 2.375 C-5.80333589 -1.85919228 -5.80333589 -1.85919228 0 0 Z " fill="#907DB3" transform="translate(436,367)"/>
<path d="M0 0 C0.89847656 0.26586914 1.79695313 0.53173828 2.72265625 0.80566406 C3.56054688 1.05799805 4.3984375 1.31033203 5.26171875 1.5703125 C6.01799561 1.79734863 6.77427246 2.02438477 7.5534668 2.25830078 C9.3125 2.875 9.3125 2.875 10.3125 3.875 C10.58658241 5.2926224 10.80386273 6.72132255 10.99609375 8.15234375 C11.17918091 9.4990918 11.17918091 9.4990918 11.3659668 10.87304688 C11.49269775 11.84306641 11.61942871 12.81308594 11.75 13.8125 C11.88124268 14.79927734 12.01248535 15.78605469 12.14770508 16.80273438 C12.98248118 23.15418071 13.77426172 29.51016096 14.5 35.875 C14.62556274 36.95769165 14.62556274 36.95769165 14.75366211 38.06225586 C15.95602974 48.99745944 15.95602974 48.99745944 13.9375 51.75 C12.3125 52.875 12.3125 52.875 10.3125 52.875 C10.3125 53.535 10.3125 54.195 10.3125 54.875 C5.27911957 54.4105261 2.32217567 51.97563963 -1.5 48.9375 C-2.09748047 48.48181641 -2.69496094 48.02613281 -3.31054688 47.55664062 C-4.81339884 46.38355732 -6.2562337 45.13443053 -7.6875 43.875 C-7.6875 43.215 -7.6875 42.555 -7.6875 41.875 C-8.26419434 41.60695557 -8.84088867 41.33891113 -9.43505859 41.06274414 C-11.7440371 39.84518719 -13.66765706 38.47260046 -15.7265625 36.87109375 C-16.47164063 36.29552734 -17.21671875 35.71996094 -17.984375 35.12695312 C-18.75265625 34.52818359 -19.5209375 33.92941406 -20.3125 33.3125 C-21.84521383 32.12222805 -23.37901622 30.93335611 -24.9140625 29.74609375 C-25.59033691 29.21943115 -26.26661133 28.69276855 -26.96337891 28.15014648 C-28.66745944 26.81323065 -28.66745944 26.81323065 -30.6875 25.875 C-30.6875 25.215 -30.6875 24.555 -30.6875 23.875 C-31.38875 23.6275 -32.09 23.38 -32.8125 23.125 C-35.6875 21.875 -35.6875 21.875 -38.5 19.9375 C-44.24479426 16.22028019 -49.76288198 13.96685337 -56.6875 14.875 C-58.76198735 15.67802736 -60.82336415 16.51526688 -62.875 17.375 C-69.25516539 19.95499776 -74.84569502 21.02212898 -81.6875 19.875 C-84.52359635 18.66262293 -86.49760115 17.06489885 -88.6875 14.875 C-89.0078125 12.4921875 -89.0078125 12.4921875 -88.6875 9.875 C-86.9921875 8.3203125 -86.9921875 8.3203125 -84.5625 7 C-83.655 6.50113281 -82.7475 6.00226563 -81.8125 5.48828125 C-80.78125 4.95589844 -79.75 4.42351562 -78.6875 3.875 C-77.5325 3.27042969 -76.3775 2.66585938 -75.1875 2.04296875 C-69.14163581 -1.07347293 -63.10191354 -3.86108934 -56.6875 -6.125 C-56.3575 -6.455 -56.0275 -6.785 -55.6875 -7.125 C-36.80616907 -11.07690647 -17.97579248 -5.33815024 0 0 Z " fill="#907DB3" transform="translate(505.6875,373.125)"/>
<path d="M0 0 C5.29660184 -0.47645594 7.9620819 0.78109699 12.3125 3.75 C13.36050781 4.44609375 14.40851563 5.1421875 15.48828125 5.859375 C18 8 18 8 18.93359375 10.1171875 C19 12 19 12 17.75 14.375 C13.75813834 18.1854134 9.14587122 20.98705626 4 23 C1.79481773 22.73568021 0.57444003 22.57444003 -1 21 C-1.04063832 19.33382885 -1.042721 17.66611905 -1 16 C-18.13248483 19.40116911 -33.01911437 23.49752857 -48.30517578 32.1237793 C-50 33 -50 33 -53 34 C-53 34.66 -53 35.32 -53 36 C-54.62078303 37.26921613 -56.2993213 38.46502621 -58 39.625 C-66.68765473 45.67943597 -66.68765473 45.67943597 -73 54 C-73.66 54 -74.32 54 -75 54 C-75.268125 54.556875 -75.53625 55.11375 -75.8125 55.6875 C-77.10899496 58.21225334 -78.42476323 60.63714484 -80 63 C-80.66 63 -81.32 63 -82 63 C-82.12979248 63.58773193 -82.25958496 64.17546387 -82.39331055 64.78100586 C-83.34824565 68.27372425 -85.14887723 71.36466818 -86.8125 74.5625 C-92.17429656 85.11359245 -95.56500606 95.39688496 -98 107 C-100.875 107.625 -100.875 107.625 -104 108 C-106 106 -106 106 -106.22265625 103.62890625 C-105.0637252 81.43961665 -92.81609979 60.90685561 -78 45 C-77.53754883 44.48985352 -77.07509766 43.97970703 -76.59863281 43.45410156 C-58.16650174 23.2262166 -32.20581878 10.2376374 -5 7 C-3.68 7 -2.36 7 -1 7 C-0.67 4.69 -0.34 2.38 0 0 Z " fill="#927DB5" transform="translate(446,279)"/>
<path d="M0 0 C1.33027158 4.49182611 0.55918725 8.09198604 -0.625 12.5 C-0.81102783 13.20632568 -0.99705566 13.91265137 -1.1887207 14.64038086 C-7.34115505 37.30308076 -21.87583321 62.67100641 -42 76 C-42.66 76 -43.32 76 -44 76 C-44 76.66 -44 77.32 -44 78 C-49.89868502 82.71385196 -56.83441775 86.03281636 -63.625 89.25 C-64.31650146 89.57887207 -65.00800293 89.90774414 -65.72045898 90.24658203 C-73.81949178 93.99165585 -82.02219872 96.39878794 -90.75 98.1875 C-91.57371094 98.36474609 -92.39742188 98.54199219 -93.24609375 98.72460938 C-97.21995358 99.55329673 -100.91564423 100.24074455 -105 100 C-104.814375 100.78375 -104.62875 101.5675 -104.4375 102.375 C-104 105 -104 105 -105 107 C-109.95769796 107.29162929 -113.02806853 107.12940055 -117 104 C-117 103.34 -117 102.68 -117 102 C-117.598125 101.896875 -118.19625 101.79375 -118.8125 101.6875 C-121.38994819 100.87744486 -122.43063575 100.19710995 -124 98 C-124.40234375 95.62109375 -124.40234375 95.62109375 -124 93 C-121.76953125 91.05078125 -121.76953125 91.05078125 -118.8125 89.3125 C-117.84957031 88.73113281 -116.88664062 88.14976562 -115.89453125 87.55078125 C-113.28202458 86.15109819 -110.8255733 84.89508743 -108 84 C-105.6875 85.125 -105.6875 85.125 -104 87 C-104 88.32 -104 89.64 -104 91 C-90.20717436 89.00836115 -90.20717436 89.00836115 -77 85 C-76.505 83.515 -76.505 83.515 -76 82 C-75.34 82 -74.68 82 -74 82 C-74 82.66 -74 83.32 -74 84 C-64.75155994 79.30713433 -56.23601641 74.35878634 -48 68 C-46.54195579 66.93710328 -45.08364723 65.87456903 -43.625 64.8125 C-32.99032493 57.05902545 -24.65641449 45.74918096 -19 34 C-18.23042969 32.45505859 -18.23042969 32.45505859 -17.4453125 30.87890625 C-13.14350578 21.96496347 -10.10750776 12.88412966 -7.875 3.25 C-7.58625 2.1775 -7.2975 1.105 -7 0 C-4.3333581 -1.33332095 -2.83319697 -0.67102033 0 0 Z " fill="#937CB6" transform="translate(569,419)"/>
<path d="M0 0 C0.721875 0.598125 1.44375 1.19625 2.1875 1.8125 C4.91314203 4.0352811 4.91314203 4.0352811 7.8125 5.625 C8.534375 6.07875 9.25625 6.5325 10 7 C10 7.66 10 8.32 10 9 C10.60585938 9.25136719 11.21171875 9.50273437 11.8359375 9.76171875 C14.31528622 11.18040746 15.18036191 12.37525573 16.625 14.8125 C17.02976562 15.47894531 17.43453125 16.14539063 17.8515625 16.83203125 C20.58122736 21.98497001 21.41689643 26.3624848 21.4375 32.1875 C21.44330078 33.31273071 21.44330078 33.31273071 21.44921875 34.46069336 C21.31681265 40.86101103 19.65363692 45.68917777 16 51 C14.68 50.67 13.36 50.34 12 50 C11.731875 48.865625 11.46375 47.73125 11.1875 46.5625 C10.795625 45.386875 10.40375 44.21125 10 43 C9.01 42.67 8.02 42.34 7 42 C7 41.34 7 40.68 7 40 C6.34 40 5.68 40 5 40 C5 39.34 5 38.68 5 38 C3.68 37.67 2.36 37.34 1 37 C1 35.68 1 34.36 1 33 C1.66 33 2.32 33 3 33 C3.83057001 30.09959681 4.13532287 27.51427898 4.125 24.5 C4.12757813 23.7471875 4.13015625 22.994375 4.1328125 22.21875 C4.00158417 20.026465 3.60331338 18.10680863 3 16 C2.34 16 1.68 16 1 16 C0.34 15.01 -0.32 14.02 -1 13 C-4.0510635 11.98297883 -6.24199061 11.83417917 -9.4375 11.8125 C-10.38496094 11.79832031 -11.33242188 11.78414063 -12.30859375 11.76953125 C-15.11758097 12.01006862 -16.66476292 12.44826294 -19 14 C-22.07305217 18.43885313 -23.82266298 21.47640567 -23 27 C-22.2265625 28.5159375 -22.2265625 28.5159375 -21.4375 30.0625 C-20 33 -20 33 -20 35.75 C-21 38 -21 38 -23.4375 39.0625 C-24.283125 39.371875 -25.12875 39.68125 -26 40 C-27.23396041 41.7142289 -27.23396041 41.7142289 -28 44 C-28.53826589 45.25146818 -29.08014958 46.50138445 -29.625 47.75 C-30.07875 48.8225 -30.5325 49.895 -31 51 C-32.86328125 50.7421875 -32.86328125 50.7421875 -35 50 C-36.23046875 48.2578125 -36.23046875 48.2578125 -37.1875 46.125 C-37.51105469 45.42632812 -37.83460938 44.72765625 -38.16796875 44.0078125 C-41.08084643 36.97861471 -41.39282463 28.13169994 -38.953125 20.89453125 C-37.19995 17.40365044 -35.16516359 14.24774538 -33 11 C-32.34 11 -31.68 11 -31 11 C-31 10.34 -31 9.68 -31 9 C-22.88460468 1.62601116 -13.4465573 0.64468325 -2.8984375 1.02734375 C-0.9880784 1.22036167 -0.9880784 1.22036167 0 0 Z " fill="#917EB5" transform="translate(547,288)"/>
<path d="M0 0 C2.62875481 2.46357273 4.99852608 4.99778912 7 8 C7 8.66 7 9.32 7 10 C7.66 10 8.32 10 9 10 C12.3312925 19.31968736 13.48741766 27.55935787 10 37.015625 C8.48056528 40.03075328 6.57660668 41.84122143 4 44 C3.56429687 43.32453125 3.12859375 42.6490625 2.6796875 41.953125 C-0.75142529 36.81388246 -3.51942778 32.94079485 -9 30 C-8.38722388 27.03824877 -7.74627478 25.61941217 -6 23 C-5.7200908 20.39158121 -5.7200908 20.39158121 -5.8125 17.5625 C-5.82216797 16.14130859 -5.82216797 16.14130859 -5.83203125 14.69140625 C-5.98040719 12.3139406 -6.32736122 10.27620963 -7 8 C-7.66 8 -8.32 8 -9 8 C-9 7.34 -9 6.68 -9 6 C-15.91940215 3.74060338 -22.1356317 2.80727056 -29 6 C-30.3498008 7.78265886 -30.3498008 7.78265886 -31 10 C-31.391875 10.763125 -31.78375 11.52625 -32.1875 12.3125 C-33.27516552 15.91016286 -32.845537 18.35768675 -32 22 C-31.0398183 23.68991979 -30.04644066 25.36209288 -29 27 C-29 27.99 -29 28.98 -29 30 C-30.4609375 31.38671875 -30.4609375 31.38671875 -32.375 32.6875 C-33.00148438 33.12449219 -33.62796875 33.56148438 -34.2734375 34.01171875 C-36 35 -36 35 -38 35 C-38.99 37.97 -39.98 40.94 -41 44 C-45 43 -45 43 -46.484375 40.98828125 C-50.86520565 31.7263399 -51.86459258 22.36696485 -48.4375 12.5625 C-46.26971621 7.86175022 -43.15999702 4.09438202 -39 1 C-38.34 1 -37.68 1 -37 1 C-37 0.34 -37 -0.32 -37 -1 C-25.14726182 -7.61906158 -11.40953564 -8.05147954 0 0 Z " fill="#917DB4" transform="translate(391,460)"/>
<path d="M0 0 C6.05106191 -0.21915315 11.30201576 -0.18220673 17 2 C18.2029826 4.40596519 17.98555034 5.42224531 17.67041016 8.06665039 C17.57345856 8.90414322 17.47650696 9.74163605 17.37661743 10.60450745 C17.2652243 11.50974655 17.15383118 12.41498566 17.0390625 13.34765625 C16.929039 14.27468857 16.8190155 15.20172089 16.70565796 16.15684509 C16.47142293 18.11834414 16.23416641 20.07948434 15.99414062 22.0402832 C15.62620241 25.05265568 15.2694183 28.06619832 14.9140625 31.08007812 C14.68555948 32.98185069 14.4564146 34.88354627 14.2265625 36.78515625 C14.11921783 37.69241959 14.01187317 38.59968292 13.90127563 39.53443909 C13.11539493 45.88460507 13.11539493 45.88460507 12 47 C10.27432807 47.12641208 8.54275643 47.17582486 6.8125 47.1875 C5.87019531 47.20167969 4.92789062 47.21585937 3.95703125 47.23046875 C0.70583968 46.97707337 -1.93310393 46.07371949 -5 45 C-4.45184218 39.39461965 -3.90040192 33.78957546 -3.34594727 28.18481445 C-3.15787454 26.2789784 -2.97069145 24.37305434 -2.78442383 22.46704102 C-2.51618807 19.72388336 -2.24473104 16.98106047 -1.97265625 14.23828125 C-1.89032242 13.38913651 -1.80798859 12.53999176 -1.72315979 11.66511536 C-1.32915395 7.72319717 -0.88397994 3.869562 0 0 Z " fill="#917DB4" transform="translate(372,368)"/>
<path d="M0 0 C1.75256773 7.82671921 2.73102354 15.6533844 3.5625 23.625 C3.81334897 25.97140265 4.06463988 28.31775811 4.31640625 30.6640625 C4.43258301 31.75493164 4.54875977 32.84580078 4.66845703 33.96972656 C5.0713871 37.65247181 5.52375193 41.32608628 6 45 C1.82430864 46.85586283 -1.73601014 47.11126276 -6.234375 47.0625 C-7.31428711 47.05347656 -8.39419922 47.04445313 -9.50683594 47.03515625 C-10.74095215 47.01775391 -10.74095215 47.01775391 -12 47 C-12.5581294 43.00311089 -13.10905508 39.00529311 -13.65405273 35.0065918 C-13.92920623 32.99804235 -14.20963863 30.99021827 -14.49023438 28.98242188 C-15.71106141 19.99269556 -16.51302326 11.06069411 -17 2 C-11.18072158 0.5330585 -6.01206035 -0.21862038 0 0 Z " fill="#917EB5" transform="translate(537,368)"/>
<path d="M0 0 C2.86564686 0.18488044 3.81237165 0.79226861 5.75 2.9375 C7 5 7 5 7 7 C7.66 7 8.32 7 9 7 C13.07877462 14.0547046 13.07877462 14.0547046 12.75 18 C12.5025 18.66 12.255 19.32 12 20 C10.35 20.33 8.7 20.66 7 21 C9.4616683 39.83445262 9.4616683 39.83445262 17 57 C16.875 59.0625 16.875 59.0625 16 61 C13.41847698 62.72101535 12.15081975 63 9 63 C2.34182742 49.137903 -2.59445277 35.52182237 -2 20 C-2.763125 20.20625 -3.52625 20.4125 -4.3125 20.625 C-7 21 -7 21 -10 19 C-10.66276025 15.54762163 -10.0280304 14.05078065 -8.3203125 10.95703125 C-7.59585937 9.91933594 -6.87140625 8.88164062 -6.125 7.8125 C-5.40570313 6.76707031 -4.68640625 5.72164063 -3.9453125 4.64453125 C-2 2 -2 2 0 0 Z " fill="#937DB6" transform="translate(341,392)"/>
<path d="M0 0 C2.84504829 1.19549504 3.63437399 3.2896662 4.86328125 6.00390625 C9.41806411 17.95605544 11.99305202 30.20686711 13.93359375 42.8125 C14.73796875 42.791875 15.54234375 42.77125 16.37109375 42.75 C18.93359375 42.8125 18.93359375 42.8125 19.93359375 43.8125 C20.38585987 48.67436074 19.33745068 51.60575038 16.93359375 55.8125 C16.27359375 55.8125 15.61359375 55.8125 14.93359375 55.8125 C14.83046875 56.410625 14.72734375 57.00875 14.62109375 57.625 C13.81178569 60.20007109 13.17135503 61.29401913 10.93359375 62.8125 C8.6328125 62.80859375 8.6328125 62.80859375 5.93359375 61.8125 C4.03063908 59.56542524 2.53432592 57.53367623 0.99609375 55.0625 C0.57263672 54.44117188 0.14917969 53.81984375 -0.28710938 53.1796875 C-2.21128585 50.16461427 -3.20005145 48.50409054 -2.5078125 44.921875 C-1.06640625 42.8125 -1.06640625 42.8125 1.93359375 41.8125 C2.59359375 42.1425 3.25359375 42.4725 3.93359375 42.8125 C2.6307395 30.41824183 0.34799768 18.90508158 -5.4296875 7.71484375 C-6.23549612 5.30730511 -6.04843506 4.13937615 -5.06640625 1.8125 C-2.06640625 -0.1875 -2.06640625 -0.1875 0 0 Z " fill="#917DB5" transform="translate(558.06640625,350.1875)"/>
<path d="M0 0 C3.87512649 3.29909417 6.22127523 6.31665597 6.875 11.4375 C6.91625 12.613125 6.9575 13.78875 7 15 C2.41776563 18.15173988 -1.31246845 20.65178378 -7 21 C-7.66644531 21.05027344 -8.33289063 21.10054688 -9.01953125 21.15234375 C-16.17599438 21.46567401 -23.00441842 19.99705439 -29 16 C-29.40589343 11.87341681 -29.45706802 9.15611323 -27.9375 5.3125 C-20.5939831 -3.45234275 -10.12286995 -5.81127719 0 0 Z " fill="#917EB4" transform="translate(549,330)"/>
<path d="M0 0 C3.4375 1.6875 3.4375 1.6875 6 4 C6.9075 4.7425 7.815 5.485 8.75 6.25 C11.66355009 9.81100567 12.16280617 12.50959675 13 17 C6.66775272 22.27687274 2.82259361 23.36256149 -5.25 23.375 C-6.07113281 23.39949219 -6.89226562 23.42398438 -7.73828125 23.44921875 C-13.69766275 23.47755178 -17.96664756 22.20912964 -23 19 C-24 18 -24 18 -24.125 16.1796875 C-23.80296584 10.24218275 -22.24880262 7.41267572 -17.88671875 3.41015625 C-12.27912172 -0.78102911 -6.83425089 -0.74305278 0 0 Z " fill="#907DB3" transform="translate(378,492)"/>
<path d="M0 0 C4.53746105 0.06164479 8.52293642 1.04532407 12.8359375 2.38671875 C13.57328125 2.61012939 14.310625 2.83354004 15.0703125 3.0637207 C20.77883261 4.85326664 26.43813332 6.88556321 31.4609375 10.19921875 C31.9559375 11.18921875 31.9559375 11.18921875 32.4609375 12.19921875 C31.52647215 14.23066516 30.52868974 16.23455462 29.4609375 18.19921875 C25.68858188 17.57957189 22.56269747 16.45953874 19.0859375 14.88671875 C13.03359817 12.27782217 7.00945724 10.68318723 0.61328125 9.19140625 C-2.3718133 8.25185976 -3.77479226 7.74396541 -5.5390625 5.19921875 C-5.02950821 0.86800727 -4.43101839 0.24942819 0 0 Z " fill="#937CB7" transform="translate(475.5390625,287.80078125)"/>
<path d="M0 0 C3.50388912 1.1064913 6.87529855 2.3703698 10.25 3.8125 C17.92182397 6.94024362 26.00657935 8.8753871 34 11 C34.04254356 12.99954746 34.04080783 15.00041636 34 17 C33 18 33 18 29.3125 18.3125 C17.86209613 18.18466455 7.04792428 13.04629086 -3 8 C-2.37240135 5.07120629 -1.41377341 2.63904371 0 0 Z " fill="#927EB6" transform="translate(405,499)"/>
<path d="M0 0 C3.64737744 2.94894346 5.75174863 5.13811474 6.375 9.8125 C6 13 6 13 3.875 15.8125 C0.65528702 18.26228161 -0.98105036 18.91798062 -5 19 C-8.31342387 18.28533995 -10.35204894 17.58315596 -12.875 15.3125 C-14.49345236 11.98568125 -14.44880331 9.65454126 -14 6 C-10.33497368 0.38029298 -6.68644727 -1.17845431 0 0 Z " fill="#907DB3" transform="translate(376,468)"/>
<path d="M0 0 C2.69990662 1.79993774 4.5418865 3.083773 6 6 C6.12339449 10.56559624 5.83352347 13.99486876 2.875 17.5625 C-0.80117997 19.40058999 -2.93799222 19.65282268 -7 19 C-10.2920147 16.56677174 -11.71494428 14.91217829 -12.9375 11 C-13.00740093 7.64475538 -12.71457905 5.88361023 -11 3 C-7.39142023 0.09308852 -4.58593387 -0.66878202 0 0 Z " fill="#907DB3" transform="translate(541,303)"/>
<path d="M0 0 C3.25976653 1.51725769 6.0987404 3.37873515 9.03515625 5.44921875 C10.01033203 6.13306641 10.98550781 6.81691406 11.99023438 7.52148438 C13.00408203 8.23626953 14.01792969 8.95105469 15.0625 9.6875 C32.96173846 24.25593144 32.96173846 24.25593144 54 30 C53.70579969 26.86886811 53.05052333 26.04287077 50.6015625 23.96484375 C49.61929688 23.29582031 48.63703125 22.62679688 47.625 21.9375 C41.49500799 17.72414137 41.49500799 17.72414137 39 15 C39.66 13.35 40.32 11.7 41 10 C46.68325981 10.39417313 50.11325656 12.01955023 54.4375 15.5625 C54.97826172 15.98724609 55.51902344 16.41199219 56.07617188 16.84960938 C57.39388448 17.88745381 58.6983849 18.94203699 60 20 C59.34 20.66 58.68 21.32 58 22 C58 21.34 58 20.68 58 20 C57.34 19.79375 56.68 19.5875 56 19.375 C52.48102669 17.76213723 49.83252146 15.6079507 46.8671875 13.14453125 C45.94292969 12.57798828 45.94292969 12.57798828 45 12 C44.01 12.33 43.02 12.66 42 13 C43.5081098 17.52432941 47.4571115 19.15147783 51.33984375 21.59570312 C55.77680746 24.50591652 55.77680746 24.50591652 56.96875 27.14453125 C57 29 57 29 56 31.25 C53.65665341 33.30042827 52.18141826 33.47604427 49.11279297 33.39648438 C44.64658345 32.55836047 40.89693912 29.95773863 37.0625 27.625 C35.75055664 26.86316406 35.75055664 26.86316406 34.41210938 26.0859375 C29.71700322 23.30039443 29.71700322 23.30039443 28 22 C28 21.34 28 20.68 28 20 C27.41444336 19.88229248 26.82888672 19.76458496 26.22558594 19.64331055 C23.88593749 18.96702998 22.38052984 18.09498184 20.390625 16.70703125 C19.38708984 16.01275024 19.38708984 16.01275024 18.36328125 15.30444336 C17.31720703 14.5659314 17.31720703 14.5659314 16.25 13.8125 C15.53714844 13.31435791 14.82429688 12.81621582 14.08984375 12.30297852 C12.05466699 10.87588987 10.02641605 9.43949037 8 8 C7.06671875 7.34257812 6.1334375 6.68515625 5.171875 6.0078125 C3.40445437 4.72992924 1.69270469 3.37532256 0 2 C0 1.34 0 0.68 0 0 Z " fill="#9B88C0" transform="translate(408,437)"/>
<path d="M0 0 C3.4600542 1.44968694 6.73319699 3.1595476 10 5 C10 5.66 10 6.32 10 7 C10.680625 7.226875 11.36125 7.45375 12.0625 7.6875 C15.6988709 9.31226146 19.02829263 11.32803257 22 14 C22 14.66 22 15.32 22 16 C22.71285156 16.2371875 23.42570312 16.474375 24.16015625 16.71875 C27.47566747 18.21460651 29.70308923 20.10312398 32.4375 22.5 C37.59858051 26.95954244 42.98634319 30.94757326 48.63061523 34.77539062 C50.12030218 35.80371851 51.56523554 36.89633503 53 38 C53 38.66 53 39.32 53 40 C54.32 40.66 55.64 41.32 57 42 C56.505 42.99 56.505 42.99 56 44 C49.32633051 38.8894325 42.66964338 33.75889868 36.0625 28.5625 C35.48371094 28.10794434 34.90492188 27.65338867 34.30859375 27.18505859 C31.33764385 24.84921497 28.3756233 22.50307703 25.42578125 20.140625 C10.85647767 7.30675138 10.85647767 7.30675138 -7 3 C-9.37619371 3.88155585 -11.61645411 4.90229253 -13.88671875 6.02734375 C-18.09346206 7.96353429 -21.88047168 8.18642851 -26.5 8.25 C-28.18609375 8.28867187 -28.18609375 8.28867187 -29.90625 8.328125 C-33.25342807 7.97312127 -34.5728226 7.2606064 -37 5 C-36.29617188 5.11859375 -35.59234375 5.2371875 -34.8671875 5.359375 C-25.63793787 6.56423788 -17.16168803 5.09173039 -8.7890625 0.890625 C-5.69095509 -0.65166428 -3.42236949 -0.38639655 0 0 Z " fill="#A18EC5" transform="translate(456,392)"/>
<path d="M0 0 C1.05703125 0.00644531 2.1140625 0.01289063 3.203125 0.01953125 C5.75 0.1875 5.75 0.1875 6.75 1.1875 C6.79080783 3.18708364 6.79254356 5.18795254 6.75 7.1875 C0.96642935 9.19917675 -4.15218999 9.40834624 -10.25 9.1875 C-10.58 6.8775 -10.91 4.5675 -11.25 2.1875 C-7.35452599 0.36239829 -4.2873082 -0.0580793 0 0 Z " fill="#9580B9" transform="translate(537.25,418.8125)"/>
<path d="M0 0 C1.8871875 0.27457031 1.8871875 0.27457031 3.8125 0.5546875 C7 1.125 7 1.125 9 2.125 C8.67 4.435 8.34 6.745 8 9.125 C1.90218999 9.34584624 -3.21642935 9.13667675 -9 7.125 C-9 4.815 -9 2.505 -9 0.125 C-5.92076903 -1.41461548 -3.35958195 -0.50256041 0 0 Z " fill="#9480B9" transform="translate(375,418.875)"/>
<path d="M0 0 C4.94866377 2.59555275 9.32187939 5.98405762 13.7109375 9.421875 C13.0509375 9.751875 12.3909375 10.081875 11.7109375 10.421875 C9.390625 9.09375 9.390625 9.09375 6.5859375 7.171875 C-0.06840658 2.81962123 -6.07542544 -0.6553233 -14.2890625 0.421875 C-16.36354985 1.22490236 -18.42492665 2.06214188 -20.4765625 2.921875 C-26.85235388 5.500104 -32.45152461 6.57679545 -39.2890625 5.421875 C-41.77881409 4.33348453 -43.23487261 3.24782157 -45.2890625 1.421875 C-44.9590625 0.431875 -44.6290625 -0.558125 -44.2890625 -1.578125 C-44.2890625 -0.918125 -44.2890625 -0.258125 -44.2890625 0.421875 C-35.26472373 4.11934714 -29.6516949 3.43962811 -20.7265625 -0.140625 C-12.82323445 -3.26561908 -7.78291384 -3.30474495 0 0 Z " fill="#A08DC5" transform="translate(463.2890625,387.578125)"/>
<path d="M0 0 C3.26612749 0.29467937 4.5919674 1.19519225 7.18554688 3.16699219 C8.00410156 3.78058594 8.82265625 4.39417969 9.66601562 5.02636719 C10.50777344 5.67605469 11.34953125 6.32574219 12.21679688 6.99511719 C13.47943359 7.94644531 13.47943359 7.94644531 14.76757812 8.91699219 C18.80004021 11.9651525 22.79140474 15.059758 26.71679688 18.24511719 C22.36832034 17.70449578 19.87019256 16.19089538 16.40429688 13.55761719 C15.4478125 12.8421875 14.49132812 12.12675781 13.50585938 11.38964844 C11.78339626 10.06523352 10.06821628 8.73120864 8.36523438 7.38183594 C7.676875 6.84171875 6.98851562 6.30160156 6.27929688 5.74511719 C5.68246094 5.26042969 5.085625 4.77574219 4.47070312 4.27636719 C2.48121099 2.90721565 2.48121099 2.90721565 -1.28320312 3.24511719 C0.44691514 8.2393919 5.02921341 10.60430337 9.19335938 13.44628906 C10.94335938 14.70996094 10.94335938 14.70996094 13.71679688 17.24511719 C14.11523438 20.06152344 14.11523438 20.06152344 13.71679688 22.24511719 C13.20632813 21.54 12.69585937 20.83488281 12.16992188 20.10839844 C9.24832758 16.69832102 6.02646316 14.14215992 2.46679688 11.43261719 C1.81710937 10.93052734 1.16742188 10.4284375 0.49804688 9.91113281 C-1.09161796 8.68381805 -2.68685182 7.46372226 -4.28320312 6.24511719 C-3.22441643 0.34616276 -3.22441643 0.34616276 0 0 Z " fill="#9F8CC4" transform="translate(467.283203125,436.7548828125)"/>
<path d="M0 0 C0 0.66 0 1.32 0 2 C-2.30091567 3.70732838 -4.60932727 5.30173347 -7 6.875 C-12.85445632 10.8059335 -18.57453032 14.85623221 -24.1875 19.125 C-30.99156073 24.28999197 -37.92964497 29.20571816 -45 34 C-45.66 33.67 -46.32 33.34 -47 33 C-37.1418532 25.54595167 -27.20683724 18.21282013 -17.16796875 11.00390625 C-14.59418458 9.15478544 -12.03235708 7.29212316 -9.48828125 5.40234375 C-8.50214844 4.67144531 -7.51601563 3.94054687 -6.5 3.1875 C-5.6646875 2.56230469 -4.829375 1.93710938 -3.96875 1.29296875 C-2 0 -2 0 0 0 Z " fill="#4F13BC" transform="translate(518,158)"/>
<path d="M0 0 C0 0.99 0 1.98 0 3 C-1.96484375 4.80078125 -1.96484375 4.80078125 -5 7 C-5.62922363 7.45938965 -6.25844727 7.9187793 -6.90673828 8.39208984 C-9.11799151 10.00097607 -11.3390289 11.59554594 -13.5625 13.1875 C-20.21849041 17.94797463 -20.21849041 17.94797463 -26.7421875 22.88671875 C-27.28931396 23.31122314 -27.83644043 23.73572754 -28.40014648 24.1730957 C-29.84480837 25.30253361 -31.28016537 26.44384473 -32.71484375 27.5859375 C-33.46894531 28.05257812 -34.22304688 28.51921875 -35 29 C-35.99 28.67 -36.98 28.34 -38 28 C-37.52280518 27.65855957 -37.04561035 27.31711914 -36.55395508 26.96533203 C-27.50138347 20.47981031 -18.51944461 13.93552404 -9.7265625 7.1015625 C-6.54085304 4.64610163 -3.29827308 2.30112075 0 0 Z " fill="#4D13BC" transform="translate(645,548)"/>
<path d="M0 0 C9.41028204 4.18981605 17.76208947 12.56349765 25.75 19 C26.45350586 19.56372314 27.15701172 20.12744629 27.88183594 20.70825195 C28.53442383 21.23765381 29.18701172 21.76705566 29.859375 22.3125 C30.44170898 22.78300781 31.02404297 23.25351562 31.62402344 23.73828125 C33 25 33 25 34 27 C30.21908383 25.65686815 27.34348084 23.97035316 24.1875 21.5 C23.00220703 20.58734375 23.00220703 20.58734375 21.79296875 19.65625 C21.20128906 19.1096875 20.60960937 18.563125 20 18 C20 17.34 20 16.68 20 16 C19.42024414 15.72671875 18.84048828 15.4534375 18.24316406 15.171875 C14.45819779 13.19453084 11.16062473 10.55495563 7.75 8 C7.00492187 7.4534375 6.25984375 6.906875 5.4921875 6.34375 C4.43644531 5.55484375 4.43644531 5.55484375 3.359375 4.75 C2.71452148 4.27046875 2.06966797 3.7909375 1.40527344 3.296875 C0.9415332 2.86890625 0.47779297 2.4409375 0 2 C0 1.34 0 0.68 0 0 Z " fill="#A392C8" transform="translate(478,399)"/>
<path d="M0 0 C0.66 0.66 1.32 1.32 2 2 C-2.75 5 -2.75 5 -5 5 C-5 5.66 -5 6.32 -5 7 C-6.90625 8.515625 -6.90625 8.515625 -9.5 10.25 C-13.58335971 13.01670821 -17.52675227 15.88882402 -21.40625 18.93359375 C-23 20 -23 20 -25 20 C-25 20.66 -25 21.32 -25 22 C-27.3125 23.6875 -27.3125 23.6875 -30 25 C-30.99 24.67 -31.98 24.34 -33 24 C-32.29991821 23.49569458 -32.29991821 23.49569458 -31.58569336 22.98120117 C-21.02164464 15.3686249 -10.48703914 7.71833707 0 0 Z " fill="#4C13C1" transform="translate(396,246)"/>
<path d="M0 0 C0.66 0 1.32 0 2 0 C3.62319476 3.66983162 5.1069425 7.08095153 6 11 C4.87926138 11.83905565 3.75325453 12.67107831 2.625 13.5 C1.99851562 13.9640625 1.37203125 14.428125 0.7265625 14.90625 C-1 16 -1 16 -3 16 C-3.99 18.97 -4.98 21.94 -6 25 C-7.32 24.67 -8.64 24.34 -10 24 C-9.505 22.515 -9.505 22.515 -9 21 C-8.34 21.33 -7.68 21.66 -7 22 C-6.690625 21.21625 -6.38125 20.4325 -6.0625 19.625 C-5 17 -5 17 -4 15 C-3.34 15 -2.68 15 -2 15 C-2 14.34 -2 13.68 -2 13 C-0.37373596 11.61767557 1.2925002 10.28062485 3 9 C2.505 8.071875 2.01 7.14375 1.5 6.1875 C0 3 0 3 0 0 Z " fill="#9D88C1" transform="translate(356,479)"/>
<path d="M0 0 C3.44495204 2.29663469 5.3873697 4.52261399 7.8125 7.875 C7.8125 8.535 7.8125 9.195 7.8125 9.875 C7.1525 9.875 6.4925 9.875 5.8125 9.875 C5.4825 8.555 5.1525 7.235 4.8125 5.875 C4.1525 5.875 3.4925 5.875 2.8125 5.875 C2.8125 5.215 2.8125 4.555 2.8125 3.875 C-4.33624771 1.54071503 -9.99971969 1.07001256 -17.1875 3.875 C-17.1875 4.535 -17.1875 5.195 -17.1875 5.875 C-18.1775 5.545 -19.1675 5.215 -20.1875 4.875 C-14.5600235 -1.37775166 -7.90082478 -2.78852639 0 0 Z " fill="#9B89C0" transform="translate(379.1875,462.125)"/>
<path d="M0 0 C0.66 0 1.32 0 2 0 C1.8114611 8.02147338 1.8114611 8.02147338 -1.125 11.5625 C-4.80117997 13.40058999 -6.93799222 13.65282268 -11 13 C-14.46991083 10.4352833 -15.78073813 8.89391378 -16.8125 4.6875 C-16.874375 3.800625 -16.93625 2.91375 -17 2 C-16.34 1.67 -15.68 1.34 -15 1 C-14.731875 2.11375 -14.46375 3.2275 -14.1875 4.375 C-13.34190981 8.21840951 -13.34190981 8.21840951 -10 10 C-6.94030525 10.3187182 -4.88060505 10.51621675 -2.1875 8.9375 C-0.44270397 6.09072753 -0.30957852 3.28153235 0 0 Z " fill="#9C8AC2" transform="translate(545,309)"/>
<path d="M0 0 C3 1 3 1 4.25 2.75 C5.21942548 5.65827645 5.12562504 7.14841657 4 10 C2.35448038 10.71727778 0.68577711 11.38325228 -1 12 C-2.23396041 13.7142289 -2.23396041 13.7142289 -3 16 C-3.53826589 17.25146818 -4.08014958 18.50138445 -4.625 19.75 C-5.07875 20.8225 -5.5325 21.895 -6 23 C-6.99 23 -7.98 23 -9 23 C-9 22.01 -9 21.02 -9 20 C-8.34 20 -7.68 20 -7 20 C-6.773125 19.29875 -6.54625 18.5975 -6.3125 17.875 C-4.50141965 13.90787162 -2.0021836 10.0010918 2 8 C1.34 5.36 0.68 2.72 0 0 Z " fill="#9C8AC0" transform="translate(522,316)"/>
<path d="M0 0 C-1 3 -1 3 -2.875 4.1875 C-5 5 -5 5 -8 5 C-8 5.66 -8 6.32 -8 7 C-8.99 7.66 -9.98 8.32 -11 9 C-11.55534301 13.83941768 -11.72429524 15.91355714 -9 20 C-8.34 20.66 -7.68 21.32 -7 22 C-7.33 22.66 -7.66 23.32 -8 24 C-11.52735985 21.19620115 -13.37193394 18.97651097 -14.125 14.5625 C-14.3330604 10.87860706 -14.01181122 10.01956234 -12 6.6875 C-8.91572858 3.58594975 -4.4952841 0 0 0 Z " fill="#9E8BC4" transform="translate(424,372)"/>
<path d="M0 0 C0.70511719 0.18916992 1.41023438 0.37833984 2.13671875 0.57324219 C4.24067804 1.14035485 6.33899868 1.72556672 8.4375 2.3125 C10.60414329 2.89592015 12.77080613 3.47926771 14.9375 4.0625 C16.43800471 4.47734542 17.93823041 4.89321274 19.4375 5.3125 C19.1075 5.9725 18.7775 6.6325 18.4375 7.3125 C11.13221397 6.00614297 4.00640777 4.17857312 -3.14453125 2.21484375 C-5.94429596 1.47570587 -8.71662326 0.83830961 -11.5625 0.3125 C-7.6476434 -2.52101514 -4.29619771 -1.22546617 0 0 Z " fill="#A190C4" transform="translate(486.5625,367.6875)"/>
<path d="M0 0 C0 0.66 0 1.32 0 2 C-0.94359375 2.03738281 -1.8871875 2.07476562 -2.859375 2.11328125 C-11.24581664 2.54270748 -18.90231011 3.60235998 -27 6 C-24.39968992 2.09953489 -22.64883164 1.35844166 -18.125 0.375 C-12.13333745 -0.37560388 -6.02497332 -0.07520771 0 0 Z " fill="#9D8AC1" transform="translate(471,365)"/>
<path d="M0 0 C6.54588006 0.85748613 10.11889605 3.89307542 14.05078125 8.8515625 C14.40269531 9.32207031 14.75460937 9.79257812 15.1171875 10.27734375 C14.1271875 11.76234375 14.1271875 11.76234375 13.1171875 13.27734375 C10.1171875 8.52734375 10.1171875 8.52734375 10.1171875 6.27734375 C9.3334375 5.96796875 8.5496875 5.65859375 7.7421875 5.33984375 C5.1171875 4.27734375 5.1171875 4.27734375 3.1171875 3.27734375 C1.07663745 3.20668758 -0.96615507 3.19312399 -3.0078125 3.21484375 C-4.10351562 3.22386719 -5.19921875 3.23289062 -6.328125 3.2421875 C-7.59269531 3.25958984 -7.59269531 3.25958984 -8.8828125 3.27734375 C-6.1630103 0.10424118 -4.20954616 -0.19274479 0 0 Z " fill="#9987C0" transform="translate(539.8828125,326.72265625)"/>
<path d="M0 0 C0.66 0.66 1.32 1.32 2 2 C-0.60873306 3.8972604 -3.21818627 5.79337468 -5.83203125 7.68359375 C-7.92872261 9.2166862 -10.00991178 10.77122869 -12.07421875 12.34765625 C-13.52248047 13.44400391 -13.52248047 13.44400391 -15 14.5625 C-15.886875 15.24441406 -16.77375 15.92632813 -17.6875 16.62890625 C-18.450625 17.08136719 -19.21375 17.53382813 -20 18 C-20.99 17.67 -21.98 17.34 -23 17 C-15.38523116 11.25902245 -7.73036145 5.58472963 0 0 Z " fill="#4913BF" transform="translate(428,665)"/>
<path d="M0 0 C0.99 0.33 1.98 0.66 3 1 C2.34 1 1.68 1 1 1 C1 1.66 1 2.32 1 3 C-1.1171875 4.7265625 -1.1171875 4.7265625 -3.875 6.625 C-4.77992188 7.25664063 -5.68484375 7.88828125 -6.6171875 8.5390625 C-9 10 -9 10 -11 10 C-11 10.66 -11 11.32 -11 12 C-12.75 13.2890625 -12.75 13.2890625 -15 14.625 C-16.11375 15.29402344 -16.11375 15.29402344 -17.25 15.9765625 C-17.8275 16.31429687 -18.405 16.65203125 -19 17 C-19 16.01 -19 15.02 -19 14 C-16.16788062 11.25958113 -12.87499146 9.06064363 -9.6875 6.75 C-8.80642578 6.08742188 -7.92535156 5.42484375 -7.01757812 4.7421875 C-6.17001953 4.12085938 -5.32246094 3.49953125 -4.44921875 2.859375 C-3.66893311 2.28670898 -2.88864746 1.71404297 -2.0847168 1.12402344 C-1.39676025 0.7530957 -0.70880371 0.38216797 0 0 Z " fill="#4D12B9" transform="translate(604,578)"/>
<path d="M0 0 C2.5 1.5 2.5 1.5 4 3 C3.67 4.32 3.34 5.64 3 7 C2.61199219 6.34515625 2.22398437 5.6903125 1.82421875 5.015625 C0.16674709 2.76018967 0.16674709 2.76018967 -2.48046875 2.609375 C-3.37378906 2.65578125 -4.26710938 2.7021875 -5.1875 2.75 C-6.08855469 2.78609375 -6.98960937 2.8221875 -7.91796875 2.859375 C-8.60503906 2.90578125 -9.29210937 2.9521875 -10 3 C-10.66 5.64 -11.32 8.28 -12 11 C-12.66 11 -13.32 11 -14 11 C-13.76928323 7.0009094 -13.56356875 4.66603579 -10.9375 1.5625 C-6.86036211 -0.60619037 -4.59806306 -0.5108959 0 0 Z " fill="#9D8AC0" transform="translate(376,468)"/>
<path d="M0 0 C0.66 0 1.32 0 2 0 C2 0.66 2 1.32 2 2 C1.34 2 0.68 2 0 2 C1.46884731 5.87241564 3.49706804 6.97198676 7 9 C7 9.66 7 10.32 7 11 C7.7425 11.2475 8.485 11.495 9.25 11.75 C12.20124062 13.09147301 13.84814974 14.60905526 16 17 C15.67 17.66 15.34 18.32 15 19 C12.33751549 17.12673119 9.69847251 15.22285221 7.0625 13.3125 C6.30775391 12.78205078 5.55300781 12.25160156 4.77539062 11.70507812 C4.05673828 11.17978516 3.33808594 10.65449219 2.59765625 10.11328125 C1.93258057 9.63673096 1.26750488 9.16018066 0.58227539 8.66918945 C-1.46873733 6.50551502 -1.81783465 4.94870905 -2 2 C-1.34 1.34 -0.68 0.68 0 0 Z " fill="#A290C5" transform="translate(482,428)"/>
<path d="M0 0 C0.99 0 1.98 0 3 0 C2.90938722 2.65161598 2.57911865 4.41939371 0.66943359 6.33398438 C-1.11493056 7.71442915 -2.93949515 8.99254549 -4.8125 10.25 C-5.44220703 10.69601562 -6.07191406 11.14203125 -6.72070312 11.6015625 C-9.81682447 13.74578085 -12.27084881 15.23143911 -16 16 C-12.16052016 11.77657218 -7.91259892 8.82271499 -3.109375 5.74609375 C-0.80604059 3.83944471 -0.33194735 2.91730648 0 0 Z " fill="#4D14BB" transform="translate(705,501)"/>
<path d="M0 0 C1 3 1 3 0.22265625 4.82421875 C-0.8515625 6.54947917 -1.92578125 8.27473958 -3 10 C-2.1646875 10.3403125 -2.1646875 10.3403125 -1.3125 10.6875 C2.68438886 12.95600449 5.53966649 15.61899946 7 20 C4 19 4 19 2.125 16.625 C-0.05133704 13.93658366 -1.96791653 12.60026627 -5 11 C-4.32902328 6.80639551 -2.1441606 3.59665648 0 0 Z " fill="#9C89C1" transform="translate(387,479)"/>
<path d="M0 0 C1.125 1.75 1.125 1.75 2 4 C1.24085772 7.13146192 0.03357898 7.97681451 -2.625 9.8125 C-6.74292661 11.2614001 -9.86372152 11.48730014 -14 10 C-16.5 7.4375 -16.5 7.4375 -18 5 C-17.01 5 -16.02 5 -15 5 C-14.608125 5.495 -14.21625 5.99 -13.8125 6.5 C-11.24298319 8.62649667 -9.12940991 8.48101855 -5.87109375 8.35546875 C-3.80807188 8.13155234 -3.80807188 8.13155234 -2.0625 6.25 C-1.07138615 4.15117067 -0.40735947 2.281213 0 0 Z " fill="#A595CA" transform="translate(380,476)"/>
<path d="M0 0 C0 3 0 3 -1.375 4.6875 C-3 6 -3 6 -5 6 C-5 6.66 -5 7.32 -5 8 C-5.66 8 -6.32 8 -7 8 C-7 8.66 -7 9.32 -7 10 C-8.86328125 11.54296875 -8.86328125 11.54296875 -11.3125 13.1875 C-12.11300781 13.73792969 -12.91351562 14.28835938 -13.73828125 14.85546875 C-14.48464844 15.23316406 -15.23101563 15.61085938 -16 16 C-16.99 15.67 -17.98 15.34 -19 15 C-18.21496094 14.41992188 -17.42992187 13.83984375 -16.62109375 13.2421875 C-10.91614424 9.00022504 -5.32372725 4.71875824 0 0 Z " fill="#4F12BE" transform="translate(739,478)"/>
<path d="M0 0 C0.66 0.33 1.32 0.66 2 1 C1.01 1.33 0.02 1.66 -1 2 C-1 2.66 -1 3.32 -1 4 C-3.1171875 5.7265625 -3.1171875 5.7265625 -5.875 7.625 C-7.23238281 8.57246094 -7.23238281 8.57246094 -8.6171875 9.5390625 C-11 11 -11 11 -13 11 C-13 11.66 -13 12.32 -13 13 C-13.99 13.66 -14.98 14.32 -16 15 C-16.99 14.67 -17.98 14.34 -19 14 C-16.21041079 11.851455 -13.41798301 9.70663085 -10.625 7.5625 C-9.43390625 6.64500977 -9.43390625 6.64500977 -8.21875 5.70898438 C-7.45820313 5.12568359 -6.69765625 4.54238281 -5.9140625 3.94140625 C-5.2123291 3.40201416 -4.5105957 2.86262207 -3.78759766 2.30688477 C-2 1 -2 1 0 0 Z " fill="#4F13C0" transform="translate(290,324)"/>
<path d="M0 0 C0.66 0 1.32 0 2 0 C1.9375 2.25 1.9375 2.25 1 5 C-3.91236965 8.60908791 -7.92923073 9.79764102 -14 10 C-14.99 9.34 -15.98 8.68 -17 8 C-16.10796875 7.79503906 -15.2159375 7.59007812 -14.296875 7.37890625 C-13.12640625 7.10949219 -11.9559375 6.84007812 -10.75 6.5625 C-9.58984375 6.29566406 -8.4296875 6.02882813 -7.234375 5.75390625 C-4.81650239 5.19032 -2.40556696 4.61330049 0 4 C0 2.68 0 1.36 0 0 Z " fill="#9A87BE" transform="translate(554,341)"/>
<path d="M0 0 C0.33 0.99 0.66 1.98 1 3 C0.33613281 3.29132813 -0.32773437 3.58265625 -1.01171875 3.8828125 C-6.72910401 6.53701471 -10.38232262 8.81466243 -14 14 C-14.99 13.67 -15.98 13.34 -17 13 C-15.88121617 11.82737096 -14.75476949 10.66204862 -13.625 9.5 C-12.99851562 8.8503125 -12.37203125 8.200625 -11.7265625 7.53125 C-10 6 -10 6 -8 6 C-8 5.34 -8 4.68 -8 4 C-5.36 2.68 -2.72 1.36 0 0 Z " fill="#9C78BE" transform="translate(362,455)"/>
<path d="M0 0 C5.02692063 0.45699278 8.14896261 2.99241748 12 6 C11.62403791 8.78211944 11.32681541 10.5879284 9.5625 12.8125 C8 14 8 14 6 14 C6 13.34 6 12.68 6 12 C6.99 11.34 7.98 10.68 9 10 C8.63725309 7.29955078 8.33655004 6.26397477 6.15234375 4.55078125 C5.42144531 4.14214844 4.69054687 3.73351562 3.9375 3.3125 C2.61379024 2.56107952 1.29784386 1.79526196 0 1 C0 0.67 0 0.34 0 0 Z " fill="#9D7CC2" transform="translate(453,282)"/>
<path d="M0 0 C0.66 0.33 1.32 0.66 2 1 C-9.94213932 10.72363913 -9.94213932 10.72363913 -14 13 C-14.99 12.67 -15.98 12.34 -17 12 C-11.25 8 -11.25 8 -9 8 C-9 7.34 -9 6.68 -9 6 C-7.03125 4.4921875 -7.03125 4.4921875 -4.5 2.875 C-3.24703125 2.06675781 -3.24703125 2.06675781 -1.96875 1.2421875 C-1.3190625 0.83226562 -0.669375 0.42234375 0 0 Z " fill="#4813BD" transform="translate(554,526)"/>
<path d="M0 0 C0.99 0 1.98 0 3 0 C3.66 2.64 4.32 5.28 5 8 C0.69230769 11.93846154 0.69230769 11.93846154 -2.8125 12.25 C-3.534375 12.1675 -4.25625 12.085 -5 12 C-3.03617993 10.49440461 -1.21736634 9.10868317 1 8 C0.67 5.36 0.34 2.72 0 0 Z M-8 12 C-5 13 -5 13 -5 13 Z " fill="#9988BA" transform="translate(386,501)"/>
<path d="M0 0 C0.66 0 1.32 0 2 0 C2.020625 1.175625 2.04125 2.35125 2.0625 3.5625 C2.67928983 8.96904833 5.98791809 11.6478689 10 15 C5.95751447 15 4.42050608 13.53316919 1.453125 10.93359375 C-1.08529146 7.55586217 -0.56301885 4.02156324 0 0 Z " fill="#9B89C1" transform="translate(389,414)"/>
<path d="M0 0 C0.33 0.66 0.66 1.32 1 2 C7.17114019 5.1268947 12.30662154 5.16868513 19 4 C19.33 4.66 19.66 5.32 20 6 C15.82031264 8.08984368 10.55140194 7.43854654 6 7 C3.26801393 5.98554929 2.13573645 5.07641043 0 3 C0 2.01 0 1.02 0 0 Z " fill="#9A89C0" transform="translate(418,386)"/>
<path d="M0 0 C0.99 0.33 1.98 0.66 3 1 C1.04594482 2.50587739 -0.91281284 4.00478644 -2.875 5.5 C-3.43058594 5.92925781 -3.98617188 6.35851562 -4.55859375 6.80078125 C-8.7734375 10 -8.7734375 10 -11 10 C-11 10.66 -11 11.32 -11 12 C-12.65 12.33 -14.3 12.66 -16 13 C-12.87517301 9.72457894 -9.52818198 6.94169101 -5.9375 4.1875 C-5.40833984 3.76791016 -4.87917969 3.34832031 -4.33398438 2.91601562 C-2.77734375 1.73046875 -2.77734375 1.73046875 0 0 Z " fill="#4D14BF" transform="translate(454,203)"/>
<path d="M0 0 C2.22384042 2.70037765 4.16666054 5.28493576 5.9375 8.3125 C7.72218392 11.29067778 7.72218392 11.29067778 10.75 11.375 C11.4925 11.25125 12.235 11.1275 13 11 C13 11.66 13 12.32 13 13 C11.02 13.33 9.04 13.66 7 14 C6.0106909 12.61133677 5.03396922 11.21370149 4.0625 9.8125 C3.51722656 9.03519531 2.97195313 8.25789063 2.41015625 7.45703125 C0.9543711 4.92049701 0.40386565 2.8781818 0 0 Z " fill="#9A7CBD" transform="translate(558,399)"/>
<path d="M0 0 C5.22276604 0.43130951 8.39366597 2.35285664 12.375 5.5625 C12.92027344 5.98724609 13.46554687 6.41199219 14.02734375 6.84960938 C15.35951252 7.88963587 16.68090382 8.94344238 18 10 C17.34 10.66 16.68 11.32 16 12 C16 11.34 16 10.68 16 10 C15.34 9.79375 14.68 9.5875 14 9.375 C10.55372314 7.79545644 7.84770489 5.75696879 4.8671875 3.4375 C3.29334515 2.22583894 1.65264172 1.10176115 0 0 Z " fill="#A492C7" transform="translate(450,447)"/>
<path d="M0 0 C0.99 0.33 1.98 0.66 3 1 C1.44384991 2.29930979 -0.1202168 3.58914138 -1.6875 4.875 C-2.55761719 5.59429687 -3.42773438 6.31359375 -4.32421875 7.0546875 C-6.8477646 8.88932376 -9.06338486 9.99467229 -12 11 C-10.73953157 7.21859472 -9.27125859 6.55893684 -6 4.375 C-2.85077459 2.37387211 -2.85077459 2.37387211 0 0 Z " fill="#4513BF" transform="translate(225,282)"/>
<path d="M0 0 C0.33 0.99 0.66 1.98 1 3 C-4 6.33333333 -9 9.66666667 -14 13 C-14 12.01 -14 11.02 -14 10 C-11.70056957 8.13757867 -9.44213863 6.46495095 -7 4.8125 C-6.33226562 4.34908203 -5.66453125 3.88566406 -4.9765625 3.40820312 C-3.32390133 2.26314503 -1.66272331 1.13039735 0 0 Z " fill="#4613C6" transform="translate(415,232)"/>
<path d="M0 0 C1.051875 0.433125 1.051875 0.433125 2.125 0.875 C8.15090871 3.23296428 13.57341962 4.45731099 20 5 C20 5.33 20 5.66 20 6 C12.11397658 6.4731614 6.79219135 6.17981006 0 2 C0 1.34 0 0.68 0 0 Z " fill="#9981BF" transform="translate(355,509)"/>
<path d="M0 0 C0.66 0.66 1.32 1.32 2 2 C0.3790787 3.17232685 -1.24686833 4.3377077 -2.875 5.5 C-3.77992188 6.1496875 -4.68484375 6.799375 -5.6171875 7.46875 C-8 9 -8 9 -10 9 C-10 8.34 -10 7.68 -10 7 C-7.8125 5.2734375 -7.8125 5.2734375 -5 3.375 C-4.071875 2.74335938 -3.14375 2.11171875 -2.1875 1.4609375 C-1.1046875 0.73777344 -1.1046875 0.73777344 0 0 Z M-12 9 C-11.34 9.33 -10.68 9.66 -10 10 C-11.375 11.5 -11.375 11.5 -13 13 C-13.66 13 -14.32 13 -15 13 C-14.67 12.01 -14.34 11.02 -14 10 C-13.34 9.67 -12.68 9.34 -12 9 Z " fill="#4E12BA" transform="translate(664,445)"/>
<path d="M0 0 C-2.23795825 3.35693737 -3.2189697 3.91970563 -7 5 C-9.3125 4.625 -9.3125 4.625 -11 4 C-8.57489301 0.24108417 -8.57489301 0.24108417 -6.0625 -0.8125 C-3.79631016 -1.01851726 -2.15577438 -0.69292748 0 0 Z " fill="#9B87BE" transform="translate(436,367)"/>
<path d="M0 0 C2.375 1.5 2.375 1.5 4 3 C3.67 3.66 3.34 4.32 3 5 C2.01 4.34 1.02 3.68 0 3 C-4.66510697 2.49292316 -7.18706566 3.30851694 -11 6 C-10.75 4.125 -10.75 4.125 -10 2 C-6.83384539 -0.34529971 -3.84104501 -0.40010886 0 0 Z " fill="#9A85C1" transform="translate(541,303)"/>
<path d="M0 0 C3.58513106 1.62184501 6.58992323 3.79256239 9.75 6.125 C11.22726562 7.21167969 11.22726562 7.21167969 12.734375 8.3203125 C13.48203125 8.87460937 14.2296875 9.42890625 15 10 C14.01 10.33 13.02 10.66 12 11 C9.79256409 9.63771358 7.84243112 8.27749316 5.8125 6.6875 C4.97428711 6.06198242 4.97428711 6.06198242 4.11914062 5.42382812 C2.70145825 4.33849619 1.34509484 3.17409054 0 2 C0 1.34 0 0.68 0 0 Z " fill="#A798CB" transform="translate(487,429)"/>
<path d="M0 0 C0 0.33 0 0.66 0 1 C-0.64066406 1.18175781 -1.28132813 1.36351562 -1.94140625 1.55078125 C-7.14395897 3.06270045 -12.07144327 4.75000671 -17 7 C-17.33 6.34 -17.66 5.68 -18 5 C-16.75264433 4.3490741 -15.50198168 3.70448331 -14.25 3.0625 C-13.55390625 2.70285156 -12.8578125 2.34320313 -12.140625 1.97265625 C-8.01773637 0.09929992 -4.51512167 -0.1026164 0 0 Z " fill="#A695C9" transform="translate(455,385)"/>
<path d="M0 0 C0.33 0.66 0.66 1.32 1 2 C0.34 1.67 -0.32 1.34 -1 1 C-0.67 0.67 -0.34 0.34 0 0 Z M-1 2 C-1 2.66 -1 3.32 -1 4 C-1.66 4 -2.32 4 -3 4 C-3 4.66 -3 5.32 -3 6 C-7.38461538 9 -7.38461538 9 -10 9 C-10 9.66 -10 10.32 -10 11 C-11.98 11.99 -11.98 11.99 -14 13 C-12.52841629 9.38502261 -10.58537669 7.59408489 -7.5 5.25 C-6.7059375 4.63640625 -5.911875 4.0228125 -5.09375 3.390625 C-3 2 -3 2 -1 2 Z " fill="#4711BC" transform="translate(243,269)"/>
<path d="M0 0 C0.66 0.33 1.32 0.66 2 1 C-0.12058145 2.67257128 -2.24604076 4.33815418 -4.375 6 C-4.97828125 6.47695313 -5.5815625 6.95390625 -6.203125 7.4453125 C-10.7734375 11 -10.7734375 11 -13 11 C-11.6390377 6.91711311 -9.52046678 6.11314183 -5.9375 3.8125 C-4.83277344 3.09707031 -3.72804688 2.38164062 -2.58984375 1.64453125 C-1.73519531 1.10183594 -0.88054688 0.55914062 0 0 Z " fill="#4D13BB" transform="translate(632,469)"/>
<path d="M0 0 C0.66 0.33 1.32 0.66 2 1 C-0.46488897 3.66142497 -3.20449652 5.63426384 -6.1875 7.6875 C-7.53908203 8.62142578 -7.53908203 8.62142578 -8.91796875 9.57421875 C-9.60503906 10.04472656 -10.29210937 10.51523437 -11 11 C-11.66 10.67 -12.32 10.34 -13 10 C-8.71 6.7 -4.42 3.4 0 0 Z " fill="#4F13BF" transform="translate(306,312)"/>
<path d="M0 0 C0.66 0.66 1.32 1.32 2 2 C-2.29 4.97 -6.58 7.94 -11 11 C-11.66 10.67 -12.32 10.34 -13 10 C-8.71 6.7 -4.42 3.4 0 0 Z " fill="#4F14BE" transform="translate(359,273)"/>
<path d="M0 0 C-4.29 2.31 -8.58 4.62 -13 7 C-13 6.01 -13 5.02 -13 4 C-11.59248779 3.13083113 -10.1735479 2.28014851 -8.75 1.4375 C-7.96109375 0.96183594 -7.1721875 0.48617188 -6.359375 -0.00390625 C-4 -1 -4 -1 0 0 Z " fill="#9B8AC0" transform="translate(431,378)"/>
<path d="M0 0 C0.66 0 1.32 0 2 0 C0.72278474 4.99275057 -1.17330957 7.57611908 -5 11 C-5.66 10.01 -6.32 9.02 -7 8 C-6.34 7.67 -5.68 7.34 -5 7 C-4.34 7.33 -3.68 7.66 -3 8 C-2.690625 6.865625 -2.38125 5.73125 -2.0625 4.5625 C-1 1 -1 1 0 0 Z " fill="#9D7EC1" transform="translate(400,493)"/>
<path d="M0 0 C0.99 0.66 1.98 1.32 3 2 C2.45730469 2.24234375 1.91460937 2.4846875 1.35546875 2.734375 C-4.19085547 5.30892676 -4.19085547 5.30892676 -8 10 C-8.99 9.67 -9.98 9.34 -11 9 C-9.92319498 7.86874978 -8.83824365 6.74525081 -7.75 5.625 C-7.14671875 4.99851562 -6.5434375 4.37203125 -5.921875 3.7265625 C-4.0299412 2.02689839 -2.31798691 1.01540134 0 0 Z " fill="#9D7DC2" transform="translate(366,492)"/>
<path d="M0 0 C0 0.66 0 1.32 0 2 C-6.435 2.495 -6.435 2.495 -13 3 C-13 2.34 -13 1.68 -13 1 C-8.59085217 -0.10228696 -4.51617599 -0.07654536 0 0 Z " fill="#9783BE" transform="translate(537,368)"/>
<path d="M0 0 C2.33524782 2.25740623 4.18705073 4.2805761 6 7 C8.05925139 7.72382467 8.05925139 7.72382467 10 8 C10 8.99 10 9.98 10 11 C8.68 11 7.36 11 6 11 C4.296875 9.1015625 4.296875 9.1015625 2.75 6.625 C2.22921875 5.81289063 1.7084375 5.00078125 1.171875 4.1640625 C0 2 0 2 0 0 Z " fill="#5E2CBE" transform="translate(274,546)"/>
<path d="M0 0 C0.33 0 0.66 0 1 0 C1.33 4.62 1.66 9.24 2 14 C1.34 14 0.68 14 0 14 C-1.17635297 11.64729407 -1.13359359 10.179248 -1.125 7.5625 C-1.12757813 6.78003906 -1.13015625 5.99757813 -1.1328125 5.19140625 C-1 3 -1 3 0 0 Z " fill="#9784BE" transform="translate(342,480)"/>
<path d="M0 0 C0.99 0.66 1.98 1.32 3 2 C1.0429132 2.67031719 -0.91571113 3.33614683 -2.875 4 C-3.96554687 4.37125 -5.05609375 4.7425 -6.1796875 5.125 C-9 6 -9 6 -11 6 C-11 5.34 -11 4.68 -11 4 C-9.23585377 3.27517252 -7.46337096 2.57060704 -5.6875 1.875 C-4.70136719 1.48054688 -3.71523438 1.08609375 -2.69921875 0.6796875 C-1.80847656 0.45539063 -0.91773438 0.23109375 0 0 Z " fill="#9886BF" transform="translate(415,370)"/>
<path d="M0 0 C3.51973101 3.25901019 6.52760275 6.8860931 9 11 C9 11.66 9 12.32 9 13 C8.34 13 7.68 13 7 13 C5.55925285 11.217871 4.19489351 9.37339724 2.875 7.5 C2.15054688 6.4790625 1.42609375 5.458125 0.6796875 4.40625 C0.12539063 3.6121875 -0.42890625 2.818125 -1 2 C-0.67 1.34 -0.34 0.68 0 0 Z " fill="#4B11BB" transform="translate(607,339)"/>
<path d="M0 0 C0.598125 0.33 1.19625 0.66 1.8125 1 C4.05386471 2.20787988 4.05386471 2.20787988 7 2 C6.67 3.98 6.34 5.96 6 8 C2.24623848 6.74874616 1.75926711 5.4347596 0 2 C0 1.34 0 0.68 0 0 Z " fill="#5F2CBA" transform="translate(542,552)"/>
<path d="M0 0 C3.49844386 0.63389235 5.84086876 2.05177694 8.75 4.0625 C9.94882812 4.88427734 9.94882812 4.88427734 11.171875 5.72265625 C12.07679688 6.35494141 12.07679688 6.35494141 13 7 C11.296875 7.7109375 11.296875 7.7109375 9 8 C6.640625 6.6015625 6.640625 6.6015625 4.25 4.625 C3.45078125 3.97789062 2.6515625 3.33078125 1.828125 2.6640625 C1.22484375 2.11492187 0.6215625 1.56578125 0 1 C0 0.67 0 0.34 0 0 Z " fill="#9B86BE" transform="translate(481,447)"/>
<path d="M0 0 C0 0.99 0 1.98 0 3 C-1.42578125 4.38671875 -1.42578125 4.38671875 -3.3125 5.6875 C-3.92738281 6.12449219 -4.54226563 6.56148438 -5.17578125 7.01171875 C-7 8 -7 8 -10 8 C-10 7.01 -10 6.02 -10 5 C-9.0925 4.731875 -8.185 4.46375 -7.25 4.1875 C-4.28528037 3.10423706 -2.3830246 2.01640543 0 0 Z " fill="#602DC1" transform="translate(344,284)"/>
<path d="M0 0 C1.98 0 3.96 0 6 0 C6 0.66 6 1.32 6 2 C4.35 2.66 2.7 3.32 1 4 C1.99 5.485 1.99 5.485 3 7 C1.68 7 0.36 7 -1 7 C-0.67 4.69 -0.34 2.38 0 0 Z " fill="#9B7DBD" transform="translate(446,279)"/>
<path d="M0 0 C0.99 0 1.98 0 3 0 C2.9375 2.25 2.9375 2.25 2 5 C-0.2308475 6.67849824 -2.47405906 7.75999263 -5 9 C-4 6 -4 6 -1 4 C-0.27617533 1.94074861 -0.27617533 1.94074861 0 0 Z " fill="#612EBF" transform="translate(705,501)"/>
<path d="M0 0 C0.66 0.33 1.32 0.66 2 1 C2 2.65 2 4.3 2 6 C1.01 6 0.02 6 -1 6 C-1 5.01 -1 4.02 -1 3 C-2.65 3 -4.3 3 -6 3 C-3 1 -3 1 0 0 Z " fill="#A588C3" transform="translate(441,286)"/>
<path d="M0 0 C0 0.99 0 1.98 0 3 C-1.64453125 4.640625 -1.64453125 4.640625 -3.8125 6.25 C-4.52019531 6.79140625 -5.22789062 7.3328125 -5.95703125 7.890625 C-6.96830078 8.43976563 -6.96830078 8.43976563 -8 9 C-8.99 8.67 -9.98 8.34 -11 8 C-7.37 5.36 -3.74 2.72 0 0 Z " fill="#5113BE" transform="translate(468,193)"/>
<path d="M0 0 C3.47132095 1.40929697 4.88093274 2.90605083 6.75 6.125 C7.39195312 7.21167969 7.39195312 7.21167969 8.046875 8.3203125 C8.51867187 9.15175781 8.51867187 9.15175781 9 10 C5.52867905 8.59070303 4.11906726 7.09394917 2.25 3.875 C1.60804688 2.78832031 1.60804688 2.78832031 0.953125 1.6796875 C0.63859375 1.12539063 0.3240625 0.57109375 0 0 Z " fill="#4B10BA" transform="translate(369,677)"/>
<path d="M0 0 C3.57769851 1.5224249 6.45368965 3.02930459 9 6 C8.67 6.66 8.34 7.32 8 8 C7.52949219 7.66226562 7.05898438 7.32453125 6.57421875 6.9765625 C5.95160156 6.53054688 5.32898438 6.08453125 4.6875 5.625 C4.07261719 5.18414062 3.45773437 4.74328125 2.82421875 4.2890625 C1.2347608 3.16589093 -0.38062171 2.07958553 -2 1 C-1.34 0.67 -0.68 0.34 0 0 Z " fill="#9D87C2" transform="translate(377,492)"/>
<path d="M0 0 C2.70931419 0.15481795 4.46584039 0.48172081 6.4453125 2.40234375 C7.67679642 3.89771708 8.8429837 5.4462924 10 7 C9.01 7 8.02 7 7 7 C6.34 6.01 5.68 5.02 5 4 C2.44816596 2.79549696 2.44816596 2.79549696 0 2 C0 1.34 0 0.68 0 0 Z " fill="#A081C2" transform="translate(541,297)"/>
<path d="M0 0 C0 0.66 0 1.32 0 2 C-1.42578125 3.32421875 -1.42578125 3.32421875 -3.3125 4.6875 C-3.92738281 5.14511719 -4.54226563 5.60273438 -5.17578125 6.07421875 C-5.77777344 6.37972656 -6.37976563 6.68523437 -7 7 C-7.99 6.67 -8.98 6.34 -10 6 C-8.71283353 4.99421411 -7.42011342 3.99553202 -6.125 3 C-5.40570312 2.443125 -4.68640625 1.88625 -3.9453125 1.3125 C-2 0 -2 0 0 0 Z " fill="#4711C1" transform="translate(518,158)"/>
<path d="M0 0 C1.98 0 3.96 0 6 0 C6 1.98 6 3.96 6 6 C4.68 6.33 3.36 6.66 2 7 C2.66 5.68 3.32 4.36 4 3 C2.68 2.01 1.36 1.02 0 0 Z " fill="#9D8BC2" transform="translate(433,510)"/>
<path d="M0 0 C1.53202706 0.25195908 3.05257128 0.57596777 4.5625 0.9375 C5.38878906 1.13214844 6.21507812 1.32679688 7.06640625 1.52734375 C8.02353516 1.76130859 8.02353516 1.76130859 9 2 C8.67 2.66 8.34 3.32 8 4 C4.26512223 3.5020163 2.18762365 3.12508244 -1 1 C-0.67 0.67 -0.34 0.34 0 0 Z " fill="#977ABD" transform="translate(413,510)"/>
<path d="M0 0 C1.17539996 0.92652701 2.34010577 1.86663387 3.5 2.8125 C4.1496875 3.33457031 4.799375 3.85664063 5.46875 4.39453125 C7 6 7 6 7 9 C6.34 8.67 5.68 8.34 5 8 C5 7.34 5 6.68 5 6 C4.34 6 3.68 6 3 6 C3 5.34 3 4.68 3 4 C1.68 3.67 0.36 3.34 -1 3 C-0.67 2.01 -0.34 1.02 0 0 Z " fill="#A899CA" transform="translate(549,322)"/>
<path d="M0 0 C0.66 0.66 1.32 1.32 2 2 C-0.64 3.65 -3.28 5.3 -6 7 C-6 6.01 -6 5.02 -6 4 C-3 1.8125 -3 1.8125 0 0 Z " fill="#4312C0" transform="translate(591,588)"/>
<path d="M0 0 C1.125 1.75 1.125 1.75 2 4 C0.92886167 7.31079119 -0.01326353 8.00884235 -3 10 C-3.99 9.67 -4.98 9.34 -6 9 C-4.7934375 7.88625 -4.7934375 7.88625 -3.5625 6.75 C-1.23011409 4.24695171 -0.36465606 3.2819045 0 0 Z " fill="#A482C5" transform="translate(380,476)"/>
<path d="M0 0 C0.33 0 0.66 0 1 0 C1.3636198 4.24223102 0.5393228 6.58168085 -2 10 C-2.66 10 -3.32 10 -4 10 C-2.8905928 6.51329166 -1.73662334 3.22515763 0 0 Z " fill="#9887BD" transform="translate(565,329)"/>
<path d="M0 0 C-1.3418344 4.02550319 -3.4227573 4.88285636 -7 7 C-7.66 7 -8.32 7 -9 7 C-9 6.34 -9 5.68 -9 5 C-7.5390625 3.7109375 -7.5390625 3.7109375 -5.625 2.375 C-4.99851562 1.92898437 -4.37203125 1.48296875 -3.7265625 1.0234375 C-2 0 -2 0 0 0 Z " fill="#4511BF" transform="translate(400,155)"/>
<path d="M0 0 C3.36591866 1.44253657 5.51047079 3.33264727 8 6 C4.06830895 6 2.83572772 4.60580385 0 2 C0 1.34 0 0.68 0 0 Z " fill="#A898C8" transform="translate(408,437)"/>
<path d="M0 0 C3.3 0.99 6.6 1.98 10 3 C8.02 3.99 8.02 3.99 6 5 C2.75 3.625 2.75 3.625 0 2 C0 1.34 0 0.68 0 0 Z " fill="#9C8BC1" transform="translate(522,345)"/>
<path d="M0 0 C0.99 0.33 1.98 0.66 3 1 C1.90554162 1.86657116 0.79902219 2.71792724 -0.3125 3.5625 C-0.92738281 4.03816406 -1.54226563 4.51382812 -2.17578125 5.00390625 C-2.77777344 5.33261719 -3.37976563 5.66132813 -4 6 C-4.99 5.67 -5.98 5.34 -7 5 C-5.90554162 4.13342884 -4.79902219 3.28207276 -3.6875 2.4375 C-3.07261719 1.96183594 -2.45773437 1.48617188 -1.82421875 0.99609375 C-1.22222656 0.66738281 -0.62023437 0.33867187 0 0 Z " fill="#5210BE" transform="translate(316,305)"/>
<path d="M0 0 C3.99996286 1.33332095 4.83782337 3.4957827 7 7 C6.67 7.66 6.34 8.32 6 9 C4.99406757 7.8803014 3.9954151 6.7540588 3 5.625 C2.443125 4.99851562 1.88625 4.37203125 1.3125 3.7265625 C0 2 0 2 0 0 Z " fill="#4813BC" transform="translate(481,107)"/>
<path d="M0 0 C1.32 0.66 2.64 1.32 4 2 C4 3.65 4 5.3 4 7 C3.01 7 2.02 7 1 7 C1.66 5.68 2.32 4.36 3 3 C1.68 3 0.36 3 -1 3 C-0.67 2.01 -0.34 1.02 0 0 Z " fill="#9983C0" transform="translate(460,503)"/>
<path d="M0 0 C4.875 4.625 4.875 4.625 6 8 C5.01 7.67 4.02 7.34 3 7 C2.29788106 5.34795544 1.63028587 3.68076231 1 2 C0.34 1.67 -0.32 1.34 -1 1 C-0.67 0.67 -0.34 0.34 0 0 Z " fill="#4313C0" transform="translate(215,466)"/>
<path d="M0 0 C0 0.66 0 1.32 0 2 C-2.8125 3.5625 -2.8125 3.5625 -6 5 C-6.99 4.67 -7.98 4.34 -9 4 C-2.25 0 -2.25 0 0 0 Z " fill="#9684BA" transform="translate(459,295)"/>
</svg>
